<?xml version="1.0" encoding="UTF-8"?>
<svg id="Layer_2" data-name="Layer 2" xmlns="http://www.w3.org/2000/svg" viewBox="0 0 164.38 56.68">
  <defs>
    <style>
      .cls-1 {
        fill: #fff;
      }
    </style>
  </defs>
  <g id="Layer_1-2" data-name="Layer 1">
    <g>
      <path class="cls-1" d="M0,.24h8.5v2.22H2.58v3.72h4.78v2.22H2.58v3.82h6.24v2.22H0V.24Z"/>
      <path class="cls-1" d="M13.68.24h2.78l3.12,9.26c.28.82.52,2.08.54,2.08h.04s.26-1.26.54-2.08L23.84.24h2.76l-5.18,14.2h-2.56L13.68.24Z"/>
      <path class="cls-1" d="M32.38.24h8.5v2.22h-5.92v3.72h4.78v2.22h-4.78v3.82h6.24v2.22h-8.82V.24Z"/>
      <path class="cls-1" d="M47.88.24h4.58c1.54,0,2.24.12,2.86.4,1.42.64,2.32,2,2.32,3.88,0,1.7-.9,3.28-2.4,3.88v.04s.2.2.48.7l2.92,5.3h-2.88l-2.82-5.3h-2.48v5.3h-2.58V.24ZM52.78,6.9c1.38,0,2.24-.82,2.24-2.24s-.58-2.2-2.6-2.2h-1.96v4.44h2.32Z"/>
      <path class="cls-1" d="M67.76,8.5L63.04.24h2.92l2.22,4.18c.46.88.84,1.92.86,1.9h.04s.4-1.02.86-1.9l2.2-4.18h2.92l-4.72,8.26v5.94h-2.58v-5.94Z"/>
      <path class="cls-1" d="M96.08,0c3.46,0,5.24,1.94,5.24,1.94l-1.24,1.92s-1.62-1.5-3.88-1.5c-3,0-4.76,2.24-4.76,4.88s1.82,5.08,4.78,5.08c2.46,0,4.12-1.8,4.12-1.8l1.36,1.86s-1.96,2.3-5.58,2.3c-4.34,0-7.34-3.22-7.34-7.4s3.12-7.28,7.3-7.28Z"/>
      <path class="cls-1" d="M108.08.24h2.58v6.02h6.5V.24h2.58v14.2h-2.58v-5.96h-6.5v5.96h-2.58V.24Z"/>
      <path class="cls-1" d="M127.34.24h2.58v14.2h-2.58V.24Z"/>
      <path class="cls-1" d="M137.52.24h2.58v11.98h6.14v2.22h-8.72V.24Z"/>
      <path class="cls-1" d="M152.3.24h4.84c4.38,0,7.24,2.6,7.24,7.08s-2.86,7.12-7.24,7.12h-4.84V.24ZM157,12.22c2.88,0,4.72-1.7,4.72-4.9s-1.88-4.86-4.72-4.86h-2.12v9.76h2.12Z"/>
      <path class="cls-1" d="M20.85,21.24h4.84c4.38,0,7.24,2.6,7.24,7.08s-2.86,7.12-7.24,7.12h-4.84v-14.2ZM25.55,33.22c2.88,0,4.72-1.7,4.72-4.9s-1.88-4.86-4.72-4.86h-2.12v9.76h2.12Z"/>
      <path class="cls-1" d="M39.63,21.24h8.5v2.22h-5.92v3.72h4.78v2.22h-4.78v3.82h6.24v2.22h-8.82v-14.2Z"/>
      <path class="cls-1" d="M55.45,31.8s1.54,1.5,3.54,1.5c1.08,0,2.06-.56,2.06-1.72,0-2.54-6.7-2.1-6.7-6.46,0-2.36,2.04-4.12,4.76-4.12s4.24,1.52,4.24,1.52l-1.12,2.1s-1.36-1.24-3.14-1.24c-1.2,0-2.14.7-2.14,1.7,0,2.52,6.68,1.9,6.68,6.44,0,2.26-1.72,4.16-4.68,4.16-3.16,0-4.9-1.94-4.9-1.94l1.4-1.94Z"/>
      <path class="cls-1" d="M70.21,21.24h8.5v2.22h-5.92v3.72h4.78v2.22h-4.78v3.82h6.24v2.22h-8.82v-14.2Z"/>
      <path class="cls-1" d="M85.71,21.24h4.58c1.54,0,2.24.12,2.86.4,1.42.64,2.32,2,2.32,3.88,0,1.7-.9,3.28-2.4,3.88v.04s.2.2.48.7l2.92,5.3h-2.88l-2.82-5.3h-2.48v5.3h-2.58v-14.2ZM90.61,27.9c1.38,0,2.24-.82,2.24-2.24s-.58-2.2-2.6-2.2h-1.96v4.44h2.32Z"/>
      <path class="cls-1" d="M100.95,21.24h2.78l3.12,9.26c.28.82.52,2.08.54,2.08h.04s.26-1.26.54-2.08l3.14-9.26h2.76l-5.18,14.2h-2.56l-5.18-14.2Z"/>
      <path class="cls-1" d="M119.65,21.24h8.5v2.22h-5.92v3.72h4.78v2.22h-4.78v3.82h6.24v2.22h-8.82v-14.2Z"/>
      <path class="cls-1" d="M135.47,31.8s1.54,1.5,3.54,1.5c1.08,0,2.06-.56,2.06-1.72,0-2.54-6.7-2.1-6.7-6.46,0-2.36,2.04-4.12,4.76-4.12s4.24,1.52,4.24,1.52l-1.12,2.1s-1.36-1.24-3.14-1.24c-1.2,0-2.14.7-2.14,1.7,0,2.52,6.68,1.9,6.68,6.44,0,2.26-1.72,4.16-4.68,4.16-3.16,0-4.9-1.94-4.9-1.94l1.4-1.94Z"/>
      <path class="cls-1" d="M13.12,44.46h-4.66v-2.22h11.9v2.22h-4.66v11.98h-2.58v-11.98Z"/>
      <path class="cls-1" d="M32.48,42c4.18,0,7.34,3.18,7.34,7.24s-3.16,7.44-7.34,7.44-7.34-3.26-7.34-7.44,3.16-7.24,7.34-7.24ZM32.48,54.32c2.6,0,4.68-2.16,4.68-5.08s-2.08-4.88-4.68-4.88-4.68,2.08-4.68,4.88,2.08,5.08,4.68,5.08Z"/>
      <path class="cls-1" d="M55.3,42.24h5.08c2.56,0,4.38,1.32,4.38,3.66,0,1.32-.64,2.46-1.72,3.04v.04c1.56.46,2.3,1.9,2.3,3.34,0,2.84-2.28,4.12-4.9,4.12h-5.14v-14.2ZM60.38,48.04c1.12,0,1.76-.8,1.76-1.82s-.6-1.76-1.8-1.76h-2.46v3.58h2.5ZM60.64,54.22c1.32,0,2.06-.86,2.06-2.06s-.76-2.04-2.06-2.04h-2.76v4.1h2.76Z"/>
      <path class="cls-1" d="M72.14,42.24h8.5v2.22h-5.92v3.72h4.78v2.22h-4.78v3.82h6.24v2.22h-8.82v-14.2Z"/>
      <path class="cls-1" d="M87.64,42.24h2.58v11.98h6.14v2.22h-8.72v-14.2Z"/>
      <path class="cls-1" d="M108.54,42c4.18,0,7.34,3.18,7.34,7.24s-3.16,7.44-7.34,7.44-7.34-3.26-7.34-7.44,3.16-7.24,7.34-7.24ZM108.54,54.32c2.6,0,4.68-2.16,4.68-5.08s-2.08-4.88-4.68-4.88-4.68,2.08-4.68,4.88,2.08,5.08,4.68,5.08Z"/>
      <path class="cls-1" d="M122.5,42.24h2.58l5.38,8.2c.54.82,1.18,2.2,1.18,2.2h.04s-.14-1.36-.14-2.2v-8.2h2.56v14.2h-2.56l-5.38-8.18c-.54-.82-1.18-2.2-1.18-2.2h-.04s.14,1.36.14,2.2v8.18h-2.58v-14.2Z"/>
      <path class="cls-1" d="M148.06,42c3.48,0,5.28,1.8,5.28,1.8l-1.28,1.92s-1.52-1.36-3.78-1.36c-3.18,0-4.88,2.2-4.88,4.88,0,3.08,2.1,5.08,4.76,5.08,2.14,0,3.56-1.48,3.56-1.48v-1.66h-2.18v-2.22h4.5v7.48h-2.2v-.68c0-.3.02-.6.02-.6h-.04s-1.48,1.52-4.12,1.52c-3.74,0-6.96-2.9-6.96-7.36,0-4.12,3.1-7.32,7.32-7.32Z"/>
    </g>
  </g>
</svg>