<?xml version="1.0" encoding="UTF-8"?>
<svg id="Layer_2" data-name="Layer 2" xmlns="http://www.w3.org/2000/svg" xmlns:xlink="http://www.w3.org/1999/xlink" viewBox="0 0 300 263.79">
  <defs>
    <style>
      .cls-1 {
        fill: none;
      }

      .cls-2 {
        fill: #7f1e12;
      }

      .cls-3 {
        opacity: .75;
      }

      .cls-4 {
        clip-path: url(#clippath);
      }
    </style>
    <clipPath id="clippath">
      <rect class="cls-1" width="300" height="263.79"/>
    </clipPath>
  </defs>
  <g id="Layer_1-2" data-name="Layer 1">
    <g class="cls-4">
      <g class="cls-3">
        <path class="cls-2" d="M492.26,552.89l-192.38-332.61c-6.67-12.34-18.45-17.46-28.67-17.46H117.01c-4.88,0-8.87,4.02-8.87,8.92,0,1.72.62,3.24,1.47,4.59l197.37,338.18c5.3,8.51,8.35,18.57,8.35,29.33,0,0,.09,251.05.09,251.19,0,8,6.49,14.37,14.45,14.37h157.33c7.98-.02,14.41-6.62,14.41-14.61l.1-252.29c0-11.04-4.02-20.95-9.46-29.61h0Z"/>
      </g>
    </g>
  </g>
</svg>