<svg version="1.2" xmlns="http://www.w3.org/2000/svg" viewBox="0 0 155 45" width="155" height="45">
	<title>Asset 375</title>
	<style>
		.s0 { fill: #ffffff } 
	</style>
	<g id="Layer_1-2">
		<g>
			<path class="s0" d="m22.2 0c4 0 6.1 2.1 6.1 2.1l-1.5 2.2c0 0-1.8-1.6-4.4-1.6-3.6 0-5.6 2.5-5.6 5.6 0 3.6 2.4 5.9 5.5 5.9 2.5 0 4.1-1.7 4.1-1.7v-1.9h-2.5v-2.6h5.2v8.6h-2.6v-0.8c0-0.3 0-0.7 0-0.7 0 0-1.7 1.8-4.7 1.8-4.3 0-8-3.3-8-8.5 0-4.7 3.5-8.4 8.4-8.4z"/>
			<path class="s0" d="m37 0.3h5.2c1.8 0 2.6 0.1 3.3 0.4 1.7 0.8 2.7 2.3 2.7 4.5 0 2-1 3.8-2.8 4.5 0 0 0.3 0.2 0.6 0.8l3.3 6.1h-3.3l-3.2-6.1h-2.9v6.1h-2.9c0 0 0-16.3 0-16.3zm5.6 7.6c1.6 0 2.6-0.9 2.6-2.5 0-1.7-0.7-2.6-3-2.6h-2.3v5.1c0 0 2.7 0 2.7 0z"/>
			<path class="s0" d="m56.7 0.3h9.8v2.5h-6.9v4.3h5.5v2.6h-5.5v4.4h7.2v2.5h-10.1v-16.3z"/>
			<path class="s0" d="m82.6 12.4h-5.7l-1.4 4.2h-3l5.7-16.3h3.1l5.8 16.3h-3.1l-1.4-4.2zm-2.8-9.3c0 0-0.4 1.6-0.7 2.5l-1.5 4.4h4.3l-1.5-4.4c-0.3-0.9-0.6-2.5-0.6-2.5z"/>
			<path class="s0" d="m96.2 2.8h-5.4v-2.5h13.7v2.5h-5.3v13.8h-3c0 0 0-13.8 0-13.8z"/>
			<path class="s0" d="m111.3 0.3h9.8v2.5h-6.8v4.3h5.5v2.6h-5.5v4.4h7.1v2.5h-10.1v-16.3z"/>
			<path class="s0" d="m129.1 0.3h5.3c1.8 0 2.6 0.1 3.3 0.4 1.6 0.8 2.7 2.3 2.7 4.5 0 2-1.1 3.8-2.8 4.5 0 0 0.2 0.2 0.5 0.8l3.4 6.1h-3.3l-3.2-6.1h-2.9v6.1h-3v-16.3zm5.7 7.6c1.6 0 2.6-0.9 2.6-2.5 0-1.7-0.7-2.6-3-2.6h-2.3v5.1c0 0 2.7 0 2.7 0z"/>
			<path class="s0" d="m5.4 30.4h-5.4v-2.5h13.7v2.5h-5.4v13.8h-2.9v-13.8z"/>
			<path class="s0" d="m27.6 27.6c4.8 0 8.5 3.7 8.5 8.3 0 4.7-3.7 8.6-8.5 8.6-4.8 0-8.4-3.8-8.4-8.6 0-4.8 3.6-8.3 8.4-8.3zm0 14.2c3 0 5.4-2.5 5.4-5.9 0-3.3-2.4-5.6-5.4-5.6-3 0-5.4 2.4-5.4 5.6 0 3.2 2.4 5.9 5.4 5.9z"/>
			<path class="s0" d="m51 27.6c4 0 6.1 2.1 6.1 2.1l-1.5 2.2c0 0-1.8-1.6-4.4-1.6-3.6 0-5.6 2.5-5.6 5.6 0 3.6 2.4 5.9 5.5 5.9 2.5 0 4.1-1.7 4.1-1.7v-1.9h-2.5v-2.6h5.2v8.6h-2.6v-0.8c0-0.3 0-0.7 0-0.7 0 0-1.7 1.8-4.7 1.8-4.3 0-8-3.3-8-8.5 0-4.7 3.5-8.4 8.4-8.4z"/>
			<path class="s0" d="m65.8 27.9h9.7v2.5h-6.8v4.3h5.5v2.6h-5.5v4.3l7.2 0.1v2.5h-10.1v-16.3z"/>
			<path class="s0" d="m87 30.4h-5.4v-2.5h13.7v2.5h-5.4v13.8h-2.9c0 0 0-13.8 0-13.8z"/>
			<path class="s0" d="m102 27.9h3v6.9h7.5v-6.9h3v16.3h-3v-6.8h-7.5v6.8h-3z"/>
			<path class="s0" d="m124.2 27.9h9.8v2.5h-6.8v4.3h5.5v2.6h-5.5v4.3l7.1 0.1v2.5h-10.1v-16.3z"/>
			<path class="s0" d="m142 27.9h5.3c1.8 0 2.6 0.1 3.3 0.4 1.6 0.8 2.7 2.3 2.7 4.5 0 2-1.1 3.8-2.8 4.5 0 0 0.2 0.2 0.6 0.8l3.3 6.1h-3.3l-3.2-6.1h-2.9v6.1h-3v-16.3zm5.7 7.6c1.6 0 2.6-0.9 2.6-2.6 0-1.6-0.7-2.5-3-2.5h-2.3v5.1h2.7z"/>
		</g>
	</g>
</svg>