<?xml version="1.0" encoding="UTF-8"?>
<svg id="Layer_2" data-name="Layer 2" xmlns="http://www.w3.org/2000/svg" viewBox="0 0 241.34 68.68">
  <defs>
    <style>
      .cls-1 {
        fill: #fff;
      }
    </style>
  </defs>
  <g id="Layer_1-2" data-name="Layer 1">
    <g>
      <path class="cls-1" d="M36.2,10.8h-4.98l-1.2,3.64h-2.66L32.36.24h2.7l5,14.2h-2.66l-1.2-3.64ZM33.7,2.7s-.32,1.4-.6,2.2l-1.26,3.8h3.72l-1.26-3.8c-.26-.8-.56-2.2-.56-2.2h-.04Z"/>
      <path class="cls-1" d="M45.88.24h2.58l5.38,8.2c.54.82,1.18,2.2,1.18,2.2h.04s-.14-1.36-.14-2.2V.24h2.56v14.2h-2.56l-5.38-8.18c-.54-.82-1.18-2.2-1.18-2.2h-.04s.14,1.36.14,2.2v8.18h-2.58V.24Z"/>
      <path class="cls-1" d="M65.08.24h4.84c4.38,0,7.24,2.6,7.24,7.08s-2.86,7.12-7.24,7.12h-4.84V.24ZM69.78,12.22c2.88,0,4.72-1.7,4.72-4.9s-1.88-4.86-4.72-4.86h-2.12v9.76h2.12Z"/>
      <path class="cls-1" d="M95.66,2.46h-4.66V.24h11.9v2.22h-4.66v11.98h-2.58V2.46Z"/>
      <path class="cls-1" d="M115.02,0c4.18,0,7.34,3.18,7.34,7.24s-3.16,7.44-7.34,7.44-7.34-3.26-7.34-7.44,3.16-7.24,7.34-7.24ZM115.02,12.32c2.6,0,4.68-2.16,4.68-5.08s-2.08-4.88-4.68-4.88-4.68,2.08-4.68,4.88,2.08,5.08,4.68,5.08Z"/>
      <path class="cls-1" d="M138.16,10.8s1.54,1.5,3.54,1.5c1.08,0,2.06-.56,2.06-1.72,0-2.54-6.7-2.1-6.7-6.46,0-2.36,2.04-4.12,4.76-4.12s4.24,1.52,4.24,1.52l-1.12,2.1s-1.36-1.24-3.14-1.24c-1.2,0-2.14.7-2.14,1.7,0,2.52,6.68,1.9,6.68,6.44,0,2.26-1.72,4.16-4.68,4.16-3.16,0-4.9-1.94-4.9-1.94l1.4-1.94Z"/>
      <path class="cls-1" d="M152.92.24h2.58v6.02h6.5V.24h2.58v14.2h-2.58v-5.96h-6.5v5.96h-2.58V.24Z"/>
      <path class="cls-1" d="M179.24,10.8h-4.98l-1.2,3.64h-2.66L175.4.24h2.7l5,14.2h-2.66l-1.2-3.64ZM176.74,2.7s-.32,1.4-.6,2.2l-1.26,3.8h3.72l-1.26-3.8c-.26-.8-.56-2.2-.56-2.2h-.04Z"/>
      <path class="cls-1" d="M188.92.24h4.58c1.54,0,2.24.12,2.86.4,1.42.64,2.32,2,2.32,3.88,0,1.7-.9,3.28-2.4,3.88v.04s.2.2.48.7l2.92,5.3h-2.88l-2.82-5.3h-2.48v5.3h-2.58V.24ZM193.82,6.9c1.38,0,2.24-.82,2.24-2.24s-.58-2.2-2.6-2.2h-1.96v4.44h2.32Z"/>
      <path class="cls-1" d="M206.08.24h8.5v2.22h-5.92v3.72h4.78v2.22h-4.78v3.82h6.24v2.22h-8.82V.24Z"/>
      <path class="cls-1" d="M8.84,37.8H3.86l-1.2,3.64H0l5-14.2h2.7l5,14.2h-2.66l-1.2-3.64ZM6.34,29.7s-.32,1.4-.6,2.2l-1.26,3.8h3.72l-1.26-3.8c-.26-.8-.56-2.2-.56-2.2h-.04Z"/>
      <path class="cls-1" d="M18.52,27.24h4.84c4.38,0,7.24,2.6,7.24,7.08s-2.86,7.12-7.24,7.12h-4.84v-14.2ZM23.22,39.22c2.88,0,4.72-1.7,4.72-4.9s-1.88-4.86-4.72-4.86h-2.12v9.76h2.12Z"/>
      <path class="cls-1" d="M35.4,27.24h2.78l3.12,9.26c.28.82.52,2.08.54,2.08h.04s.26-1.26.54-2.08l3.14-9.26h2.76l-5.18,14.2h-2.56l-5.18-14.2Z"/>
      <path class="cls-1" d="M54.1,27.24h8.5v2.22h-5.92v3.72h4.78v2.22h-4.78v3.82h6.24v2.22h-8.82v-14.2Z"/>
      <path class="cls-1" d="M69.6,27.24h2.58l5.38,8.2c.54.82,1.18,2.2,1.18,2.2h.04s-.14-1.36-.14-2.2v-8.2h2.56v14.2h-2.56l-5.38-8.18c-.54-.82-1.18-2.2-1.18-2.2h-.04s.14,1.36.14,2.2v8.18h-2.58v-14.2Z"/>
      <path class="cls-1" d="M91.74,29.46h-4.66v-2.22h11.9v2.22h-4.66v11.98h-2.58v-11.98Z"/>
      <path class="cls-1" d="M104.66,27.24h2.58v9.1c0,1.9,1.24,2.98,3.14,2.98s3.16-1.08,3.16-3v-9.08h2.58v9.1c0,3.18-2.3,5.34-5.72,5.34s-5.74-2.16-5.74-5.34v-9.1Z"/>
      <path class="cls-1" d="M123.52,27.24h4.58c1.54,0,2.24.12,2.86.4,1.42.64,2.32,2,2.32,3.88,0,1.7-.9,3.28-2.4,3.88v.04s.2.2.48.7l2.92,5.3h-2.88l-2.82-5.3h-2.48v5.3h-2.58v-14.2ZM128.42,33.9c1.38,0,2.24-.82,2.24-2.24s-.58-2.2-2.6-2.2h-1.96v4.44h2.32Z"/>
      <path class="cls-1" d="M140.68,27.24h8.5v2.22h-5.92v3.72h4.78v2.22h-4.78v3.82h6.24v2.22h-8.82v-14.2Z"/>
      <path class="cls-1" d="M156.5,37.8s1.54,1.5,3.54,1.5c1.08,0,2.06-.56,2.06-1.72,0-2.54-6.7-2.1-6.7-6.46,0-2.36,2.04-4.12,4.76-4.12s4.24,1.52,4.24,1.52l-1.12,2.1s-1.36-1.24-3.14-1.24c-1.2,0-2.14.7-2.14,1.7,0,2.52,6.68,1.9,6.68,6.44,0,2.26-1.72,4.16-4.68,4.16-3.16,0-4.9-1.94-4.9-1.94l1.4-1.94Z"/>
      <path class="cls-1" d="M191.6,37.06c.22.82.24,1.5.26,1.5h.04s.06-.7.24-1.5l2.34-9.82h2.66l-3.66,14.2h-2.98l-2.18-8.4c-.24-.92-.36-1.86-.36-1.86h-.04s-.12.94-.36,1.86l-2.18,8.4h-2.98l-3.56-14.2h2.66l2.24,9.82c.18.8.24,1.5.24,1.5h.04s.04-.68.26-1.5l2.56-9.82h2.24l2.52,9.82Z"/>
      <path class="cls-1" d="M203.44,27.24h2.58v14.2h-2.58v-14.2Z"/>
      <path class="cls-1" d="M216.56,29.46h-4.66v-2.22h11.9v2.22h-4.66v11.98h-2.58v-11.98Z"/>
      <path class="cls-1" d="M229.68,27.24h2.58v6.02h6.5v-6.02h2.58v14.2h-2.58v-5.96h-6.5v5.96h-2.58v-14.2Z"/>
      <path class="cls-1" d="M70.12,54.24h8.16v2.22h-5.58v4.02h4.7v2.22h-4.7v5.74h-2.58v-14.2Z"/>
      <path class="cls-1" d="M84.7,54.24h4.58c1.54,0,2.24.12,2.86.4,1.42.64,2.32,2,2.32,3.88,0,1.7-.9,3.28-2.4,3.88v.04s.2.2.48.7l2.92,5.3h-2.88l-2.82-5.3h-2.48v5.3h-2.58v-14.2ZM89.6,60.9c1.38,0,2.24-.82,2.24-2.24s-.58-2.2-2.6-2.2h-1.96v4.44h2.32Z"/>
      <path class="cls-1" d="M101.86,54.24h2.58v14.2h-2.58v-14.2Z"/>
      <path class="cls-1" d="M112.04,54.24h8.5v2.22h-5.92v3.72h4.78v2.22h-4.78v3.82h6.24v2.22h-8.82v-14.2Z"/>
      <path class="cls-1" d="M127.54,54.24h2.58l5.38,8.2c.54.82,1.18,2.2,1.18,2.2h.04s-.14-1.36-.14-2.2v-8.2h2.56v14.2h-2.56l-5.38-8.18c-.54-.82-1.18-2.2-1.18-2.2h-.04s.14,1.36.14,2.2v8.18h-2.58v-14.2Z"/>
      <path class="cls-1" d="M146.74,54.24h4.84c4.38,0,7.24,2.6,7.24,7.08s-2.86,7.12-7.24,7.12h-4.84v-14.2ZM151.44,66.22c2.88,0,4.72-1.7,4.72-4.9s-1.88-4.86-4.72-4.86h-2.12v9.76h2.12Z"/>
      <path class="cls-1" d="M165.84,64.8s1.54,1.5,3.54,1.5c1.08,0,2.06-.56,2.06-1.72,0-2.54-6.7-2.1-6.7-6.46,0-2.36,2.04-4.12,4.76-4.12s4.24,1.52,4.24,1.52l-1.12,2.1s-1.36-1.24-3.14-1.24c-1.2,0-2.14.7-2.14,1.7,0,2.52,6.68,1.9,6.68,6.44,0,2.26-1.72,4.16-4.68,4.16-3.16,0-4.9-1.94-4.9-1.94l1.4-1.94Z"/>
    </g>
  </g>
</svg>