<?xml version="1.0" encoding="UTF-8"?>
<svg id="Layer_2" data-name="Layer 2" xmlns="http://www.w3.org/2000/svg" viewBox="0 0 229.16 54.4">
  <defs>
    <style>
      .cls-1 {
        fill: #a8052b;
      }
    </style>
  </defs>
  <g id="Layer_1-2" data-name="Layer 1">
    <g>
      <path class="cls-1" d="M0,.1h1.38v6.4h8.16V.1h1.38v14.06h-1.38v-6.42H1.38v6.42H0V.1Z"/>
      <path class="cls-1" d="M18.86,3.86c2.78,0,4.2,2.14,4.2,4.64,0,.24-.04.7-.04.7h-7.72c.06,2.58,1.82,3.98,3.9,3.98,1.84,0,3.06-1.22,3.06-1.22l.62,1.04s-1.46,1.4-3.72,1.4c-3,0-5.26-2.16-5.26-5.26,0-3.3,2.24-5.28,4.96-5.28ZM21.68,8.08c-.08-2.1-1.36-3.08-2.86-3.08-1.68,0-3.14,1.06-3.46,3.08h6.32Z"/>
      <path class="cls-1" d="M25.56.1h1.36v11.38c0,1.32.6,1.52,1.12,1.52.18,0,.34-.02.34-.02v1.22s-.24.04-.5.04c-.84,0-2.32-.26-2.32-2.46V.1Z"/>
      <path class="cls-1" d="M30.6,4.1h1.3v.98c0,.44-.04.78-.04.78h.04s.82-2,3.48-2,4.38,2.16,4.38,5.28-1.9,5.26-4.5,5.26c-2.42,0-3.3-1.92-3.3-1.92h-.04s.04.36.04.88v4.8h-1.36V4.1ZM35.12,13.2c1.78,0,3.24-1.5,3.24-4.06s-1.3-4.04-3.18-4.04c-1.68,0-3.26,1.2-3.26,4.06,0,2.02,1.12,4.04,3.2,4.04Z"/>
      <path class="cls-1" d="M47.76.1h1.36v4.88c0,.46-.04.82-.04.82h.04s.84-1.94,3.42-1.94,4.38,2.16,4.38,5.28-1.9,5.26-4.54,5.26c-2.4,0-3.3-1.96-3.3-1.96h-.04s.04.34.04.82v.9h-1.32V.1ZM52.28,13.2c1.78,0,3.24-1.5,3.24-4.06s-1.3-4.04-3.18-4.04c-1.68,0-3.26,1.2-3.26,4.06,0,2.02,1.04,4.04,3.2,4.04Z"/>
      <path class="cls-1" d="M59.54,4.1h1.34v1.78c0,.44-.04.8-.04.8h.04c.48-1.52,1.6-2.68,3.18-2.68.28,0,.54.06.54.06v1.34s-.24-.04-.5-.04c-1.42,0-2.48,1.12-2.92,2.6-.2.64-.28,1.32-.28,1.96v4.24h-1.36V4.1Z"/>
      <path class="cls-1" d="M66.62.1h1.42v1.7h-1.42V.1ZM66.66,4.1h1.36v10.06h-1.36V4.1Z"/>
      <path class="cls-1" d="M71.3,4.1h1.34v1.5c0,.44-.04.8-.04.8h.04c.36-.92,1.64-2.54,4.02-2.54s3.36,1.42,3.36,3.9v6.4h-1.36v-6.04c0-1.58-.24-2.98-2.18-2.98-1.72,0-3.2,1.18-3.66,2.84-.12.42-.16.88-.16,1.36v4.82h-1.36V4.1Z"/>
      <path class="cls-1" d="M86.64,17.14c1.96,0,3.52-.92,3.52-3.16v-.92c0-.38.04-.72.04-.72h-.04c-.6,1.12-1.62,1.76-3.18,1.76-2.7,0-4.48-2.14-4.48-5.16s1.66-5.08,4.36-5.08,3.32,1.68,3.32,1.68h.04s-.02-.12-.02-.34v-1.1h1.32v9.82c0,3.2-2.36,4.44-4.82,4.44-1.16,0-2.32-.3-3.3-.8l.52-1.12s1.24.7,2.72.7ZM90.18,8.94c0-2.94-1.4-3.84-3.18-3.84-1.96,0-3.1,1.42-3.1,3.82s1.3,3.96,3.3,3.96c1.58,0,2.98-.98,2.98-3.94Z"/>
      <path class="cls-1" d="M100.56,5.36h-1.32v-1.14h1.34V1.32h1.34v2.9h2.52v1.14h-2.52v5c0,2.36,1.5,2.66,2.26,2.66.28,0,.46-.04.46-.04v1.22s-.22.04-.58.04c-1.16,0-3.5-.38-3.5-3.74v-5.14Z"/>
      <path class="cls-1" d="M106.88,4.1h1.34v1.78c0,.44-.04.8-.04.8h.04c.48-1.52,1.6-2.68,3.18-2.68.28,0,.54.06.54.06v1.34s-.24-.04-.5-.04c-1.42,0-2.48,1.12-2.92,2.6-.2.64-.28,1.32-.28,1.96v4.24h-1.36V4.1Z"/>
      <path class="cls-1" d="M119.34,7.94h.56v-.26c0-1.94-1.06-2.6-2.5-2.6-1.66,0-2.84.96-2.84.96l-.64-1.04s1.32-1.14,3.58-1.14c2.42,0,3.76,1.34,3.76,3.86v6.44h-1.3v-1.1c0-.5.04-.84.04-.84h-.04s-.84,2.18-3.36,2.18c-1.68,0-3.42-.98-3.42-2.98,0-3.4,4.42-3.48,6.16-3.48ZM116.82,13.24c1.92,0,3.08-2,3.08-3.74v-.44h-.58c-1.58,0-4.74.06-4.74,2.28,0,.94.74,1.9,2.24,1.9Z"/>
      <path class="cls-1" d="M124.4,4.1h1.34v1.5c0,.44-.04.8-.04.8h.04c.36-.92,1.64-2.54,4.02-2.54s3.36,1.42,3.36,3.9v6.4h-1.36v-6.04c0-1.58-.24-2.98-2.18-2.98-1.72,0-3.2,1.18-3.66,2.84-.12.42-.16.88-.16,1.36v4.82h-1.36V4.1Z"/>
      <path class="cls-1" d="M136.18,11.96s1.12,1.22,3,1.22c1.08,0,2.02-.54,2.02-1.6,0-2.2-5.42-1.66-5.42-4.94,0-1.8,1.62-2.78,3.44-2.78,2.12,0,3.1,1.1,3.1,1.1l-.62,1.04s-.86-.92-2.52-.92c-1.02,0-2,.44-2,1.56,0,2.22,5.42,1.62,5.42,4.94,0,1.64-1.42,2.82-3.44,2.82-2.44,0-3.72-1.46-3.72-1.46l.74-.98Z"/>
      <path class="cls-1" d="M145.58,5.36h-1.26v-1.14h1.26v-.48c0-3.32,2.34-3.74,3.48-3.74.38,0,.62.04.62.04v1.22s-.2-.04-.48-.04c-.78,0-2.26.28-2.26,2.52v.48h2.58v1.14h-2.58v8.8h-1.36V5.36Z"/>
      <path class="cls-1" d="M156.02,3.86c2.94,0,5.32,2.24,5.32,5.22s-2.38,5.32-5.32,5.32-5.32-2.28-5.32-5.32,2.38-5.22,5.32-5.22ZM156.02,13.18c2.16,0,3.92-1.76,3.92-4.1s-1.76-3.98-3.92-3.98-3.92,1.7-3.92,3.98,1.76,4.1,3.92,4.1Z"/>
      <path class="cls-1" d="M163.88,4.1h1.34v1.78c0,.44-.04.8-.04.8h.04c.48-1.52,1.6-2.68,3.18-2.68.28,0,.54.06.54.06v1.34s-.24-.04-.5-.04c-1.42,0-2.48,1.12-2.92,2.6-.2.64-.28,1.32-.28,1.96v4.24h-1.36V4.1Z"/>
      <path class="cls-1" d="M171,4.1h1.34v1.5c0,.44-.04.8-.04.8h.04c.48-1.36,2.08-2.54,3.64-2.54,1.86,0,2.82.86,3.12,2.52h.04c.54-1.36,2-2.52,3.7-2.52,2.44,0,3.34,1.42,3.34,3.9v6.4h-1.36v-6.06c0-1.64-.34-3-2.18-3-1.54,0-2.8,1.36-3.18,2.84-.14.44-.18.92-.18,1.46v4.76h-1.36v-6.06c0-1.52-.22-3-2.12-3-1.64,0-2.88,1.42-3.3,2.96-.1.42-.14.88-.14,1.34v4.76h-1.36V4.1Z"/>
      <path class="cls-1" d="M194.66,7.94h.56v-.26c0-1.94-1.06-2.6-2.5-2.6-1.66,0-2.84.96-2.84.96l-.64-1.04s1.32-1.14,3.58-1.14c2.42,0,3.76,1.34,3.76,3.86v6.44h-1.3v-1.1c0-.5.04-.84.04-.84h-.04s-.84,2.18-3.36,2.18c-1.68,0-3.42-.98-3.42-2.98,0-3.4,4.42-3.48,6.16-3.48ZM192.14,13.24c1.92,0,3.08-2,3.08-3.74v-.44h-.58c-1.58,0-4.74.06-4.74,2.28,0,.94.74,1.9,2.24,1.9Z"/>
      <path class="cls-1" d="M200.04,5.36h-1.32v-1.14h1.34V1.32h1.34v2.9h2.52v1.14h-2.52v5c0,2.36,1.5,2.66,2.26,2.66.28,0,.46-.04.46-.04v1.22s-.22.04-.58.04c-1.16,0-3.5-.38-3.5-3.74v-5.14Z"/>
      <path class="cls-1" d="M206.32.1h1.42v1.7h-1.42V.1ZM206.36,4.1h1.36v10.06h-1.36V4.1Z"/>
      <path class="cls-1" d="M209.62,4.1h1.44l2.8,7.38c.18.5.34,1.2.34,1.2h.04s.16-.68.36-1.2l2.78-7.38h1.42l-3.84,10.06h-1.48l-3.86-10.06Z"/>
      <path class="cls-1" d="M224.96,3.86c2.78,0,4.2,2.14,4.2,4.64,0,.24-.04.7-.04.7h-7.72c.06,2.58,1.82,3.98,3.9,3.98,1.84,0,3.06-1.22,3.06-1.22l.62,1.04s-1.46,1.4-3.72,1.4c-3,0-5.26-2.16-5.26-5.26,0-3.3,2.24-5.28,4.96-5.28ZM227.78,8.08c-.08-2.1-1.36-3.08-2.86-3.08-1.68,0-3.14,1.06-3.46,3.08h6.32Z"/>
      <path class="cls-1" d="M8.64,24.1h1.3v.98c0,.44-.04.78-.04.78h.04s.82-2,3.48-2,4.38,2.16,4.38,5.28-1.9,5.26-4.5,5.26c-2.42,0-3.3-1.92-3.3-1.92h-.04s.04.36.04.88v4.8h-1.36v-14.06ZM13.16,33.2c1.78,0,3.24-1.5,3.24-4.06s-1.3-4.04-3.18-4.04c-1.68,0-3.26,1.2-3.26,4.06,0,2.02,1.12,4.04,3.2,4.04Z"/>
      <path class="cls-1" d="M20.42,24.1h1.34v1.78c0,.44-.04.8-.04.8h.04c.48-1.52,1.6-2.68,3.18-2.68.28,0,.54.06.54.06v1.34s-.24-.04-.5-.04c-1.42,0-2.48,1.12-2.92,2.6-.2.64-.28,1.32-.28,1.96v4.24h-1.36v-10.06Z"/>
      <path class="cls-1" d="M32,23.86c2.94,0,5.32,2.24,5.32,5.22s-2.38,5.32-5.32,5.32-5.32-2.28-5.32-5.32,2.38-5.22,5.32-5.22ZM32,33.18c2.16,0,3.92-1.76,3.92-4.1s-1.76-3.98-3.92-3.98-3.92,1.7-3.92,3.98,1.76,4.1,3.92,4.1Z"/>
      <path class="cls-1" d="M43.34,37.14c1.96,0,3.52-.92,3.52-3.16v-.92c0-.38.04-.72.04-.72h-.04c-.6,1.12-1.62,1.76-3.18,1.76-2.7,0-4.48-2.14-4.48-5.16s1.66-5.08,4.36-5.08,3.32,1.68,3.32,1.68h.04s-.02-.12-.02-.34v-1.1h1.32v9.82c0,3.2-2.36,4.44-4.82,4.44-1.16,0-2.32-.3-3.3-.8l.52-1.12s1.24.7,2.72.7ZM46.88,28.94c0-2.94-1.4-3.84-3.18-3.84-1.96,0-3.1,1.42-3.1,3.82s1.3,3.96,3.3,3.96c1.58,0,2.98-.98,2.98-3.94Z"/>
      <path class="cls-1" d="M51.5,24.1h1.34v1.78c0,.44-.04.8-.04.8h.04c.48-1.52,1.6-2.68,3.18-2.68.28,0,.54.06.54.06v1.34s-.24-.04-.5-.04c-1.42,0-2.48,1.12-2.92,2.6-.2.64-.28,1.32-.28,1.96v4.24h-1.36v-10.06Z"/>
      <path class="cls-1" d="M63.96,27.94h.56v-.26c0-1.94-1.06-2.6-2.5-2.6-1.66,0-2.84.96-2.84.96l-.64-1.04s1.32-1.14,3.58-1.14c2.42,0,3.76,1.34,3.76,3.86v6.44h-1.3v-1.1c0-.5.04-.84.04-.84h-.04s-.84,2.18-3.36,2.18c-1.68,0-3.42-.98-3.42-2.98,0-3.4,4.42-3.48,6.16-3.48ZM61.44,33.24c1.92,0,3.08-2,3.08-3.74v-.44h-.58c-1.58,0-4.74.06-4.74,2.28,0,.94.74,1.9,2.24,1.9Z"/>
      <path class="cls-1" d="M69.02,24.1h1.34v1.5c0,.44-.04.8-.04.8h.04c.48-1.36,2.08-2.54,3.64-2.54,1.86,0,2.82.86,3.12,2.52h.04c.54-1.36,2-2.52,3.7-2.52,2.44,0,3.34,1.42,3.34,3.9v6.4h-1.36v-6.06c0-1.64-.34-3-2.18-3-1.54,0-2.8,1.36-3.18,2.84-.14.44-.18.92-.18,1.46v4.76h-1.36v-6.06c0-1.52-.22-3-2.12-3-1.64,0-2.88,1.42-3.3,2.96-.1.42-.14.88-.14,1.34v4.76h-1.36v-10.06Z"/>
      <path class="cls-1" d="M87.26,31.96s1.12,1.22,3,1.22c1.08,0,2.02-.54,2.02-1.6,0-2.2-5.42-1.66-5.42-4.94,0-1.8,1.62-2.78,3.44-2.78,2.12,0,3.1,1.1,3.1,1.1l-.62,1.04s-.86-.92-2.52-.92c-1.02,0-2,.44-2,1.56,0,2.22,5.42,1.62,5.42,4.94,0,1.64-1.42,2.82-3.44,2.82-2.44,0-3.72-1.46-3.72-1.46l.74-.98Z"/>
      <path class="cls-1" d="M101.96,25.36h-1.32v-1.14h1.34v-2.9h1.34v2.9h2.52v1.14h-2.52v5c0,2.36,1.5,2.66,2.26,2.66.28,0,.46-.04.46-.04v1.22s-.22.04-.58.04c-1.16,0-3.5-.38-3.5-3.74v-5.14Z"/>
      <path class="cls-1" d="M112.86,23.86c2.94,0,5.32,2.24,5.32,5.22s-2.38,5.32-5.32,5.32-5.32-2.28-5.32-5.32,2.38-5.22,5.32-5.22ZM112.86,33.18c2.16,0,3.92-1.76,3.92-4.1s-1.76-3.98-3.92-3.98-3.92,1.7-3.92,3.98,1.76,4.1,3.92,4.1Z"/>
      <path class="cls-1" d="M126.48,25.36h-1.32v-1.14h1.34v-2.9h1.34v2.9h2.52v1.14h-2.52v5c0,2.36,1.5,2.66,2.26,2.66.28,0,.46-.04.46-.04v1.22s-.22.04-.58.04c-1.16,0-3.5-.38-3.5-3.74v-5.14Z"/>
      <path class="cls-1" d="M132.8,20.1h1.36v5.44c0,.46-.04.82-.04.82h.04c.38-.96,1.72-2.5,4-2.5,2.48,0,3.36,1.42,3.36,3.9v6.4h-1.36v-6.04c0-1.58-.24-2.98-2.18-2.98-1.72,0-3.2,1.18-3.66,2.86-.12.4-.16.86-.16,1.34v4.82h-1.36v-14.06Z"/>
      <path class="cls-1" d="M149.24,23.86c2.94,0,5.32,2.24,5.32,5.22s-2.38,5.32-5.32,5.32-5.32-2.28-5.32-5.32,2.38-5.22,5.32-5.22ZM149.24,33.18c2.16,0,3.92-1.76,3.92-4.1s-1.76-3.98-3.92-3.98-3.92,1.7-3.92,3.98,1.76,4.1,3.92,4.1Z"/>
      <path class="cls-1" d="M157.02,31.96s1.12,1.22,3,1.22c1.08,0,2.02-.54,2.02-1.6,0-2.2-5.42-1.66-5.42-4.94,0-1.8,1.62-2.78,3.44-2.78,2.12,0,3.1,1.1,3.1,1.1l-.62,1.04s-.86-.92-2.52-.92c-1.02,0-2,.44-2,1.56,0,2.22,5.42,1.62,5.42,4.94,0,1.64-1.42,2.82-3.44,2.82-2.44,0-3.72-1.46-3.72-1.46l.74-.98Z"/>
      <path class="cls-1" d="M170.22,23.86c2.78,0,4.2,2.14,4.2,4.64,0,.24-.04.7-.04.7h-7.72c.06,2.58,1.82,3.98,3.9,3.98,1.84,0,3.06-1.22,3.06-1.22l.62,1.04s-1.46,1.4-3.72,1.4c-3,0-5.26-2.16-5.26-5.26,0-3.3,2.24-5.28,4.96-5.28ZM173.04,28.08c-.08-2.1-1.36-3.08-2.86-3.08-1.68,0-3.14,1.06-3.46,3.08h6.32Z"/>
      <path class="cls-1" d="M181.09,24.1h1.44l2.44,7.5c.16.48.3,1.08.3,1.08h.04s.14-.6.3-1.08l2.48-7.46h1.34l2.48,7.46c.16.48.3,1.08.3,1.08h.04s.14-.58.3-1.08l2.44-7.5h1.44l-3.4,10.06h-1.48l-2.46-7.16c-.18-.5-.32-1.08-.32-1.08h-.04s-.14.58-.3,1.08l-2.46,7.16h-1.48l-3.4-10.06Z"/>
      <path class="cls-1" d="M198.41,20.1h1.36v5.44c0,.46-.04.82-.04.82h.04c.38-.96,1.72-2.5,4-2.5,2.48,0,3.36,1.42,3.36,3.9v6.4h-1.36v-6.04c0-1.58-.24-2.98-2.18-2.98-1.72,0-3.2,1.18-3.66,2.86-.12.4-.16.86-.16,1.34v4.82h-1.36v-14.06Z"/>
      <path class="cls-1" d="M214.85,23.86c2.94,0,5.32,2.24,5.32,5.22s-2.38,5.32-5.32,5.32-5.32-2.28-5.32-5.32,2.38-5.22,5.32-5.22ZM214.85,33.18c2.16,0,3.92-1.76,3.92-4.1s-1.76-3.98-3.92-3.98-3.92,1.7-3.92,3.98,1.76,4.1,3.92,4.1Z"/>
      <path class="cls-1" d="M39.22,43.86c2.46,0,3.68,1.44,3.68,1.44l-.7,1.02s-1.12-1.22-2.94-1.22c-2.2,0-3.92,1.64-3.92,4.04s1.74,4.04,3.96,4.04c2.04,0,3.22-1.42,3.22-1.42l.62,1.06s-1.36,1.58-3.92,1.58c-2.98,0-5.28-2.14-5.28-5.26s2.32-5.28,5.28-5.28Z"/>
      <path class="cls-1" d="M50.96,47.94h.56v-.26c0-1.94-1.06-2.6-2.5-2.6-1.66,0-2.84.96-2.84.96l-.64-1.04s1.32-1.14,3.58-1.14c2.42,0,3.76,1.34,3.76,3.86v6.44h-1.3v-1.1c0-.5.04-.84.04-.84h-.04s-.84,2.18-3.36,2.18c-1.68,0-3.42-.98-3.42-2.98,0-3.4,4.42-3.48,6.16-3.48ZM48.44,53.24c1.92,0,3.08-2,3.08-3.74v-.44h-.58c-1.58,0-4.74.06-4.74,2.28,0,.94.74,1.9,2.24,1.9Z"/>
      <path class="cls-1" d="M56.02,44.1h1.34v1.5c0,.44-.04.8-.04.8h.04c.36-.92,1.64-2.54,4.02-2.54s3.36,1.42,3.36,3.9v6.4h-1.36v-6.04c0-1.58-.24-2.98-2.18-2.98-1.72,0-3.2,1.18-3.66,2.84-.12.42-.16.88-.16,1.36v4.82h-1.36v-10.06Z"/>
      <path class="cls-1" d="M68.16,39.9h1.44l-1.12,3.44h-1.1l.78-3.44Z"/>
      <path class="cls-1" d="M72.44,45.36h-1.32v-1.14h1.34v-2.9h1.34v2.9h2.52v1.14h-2.52v5c0,2.36,1.5,2.66,2.26,2.66.28,0,.46-.04.46-.04v1.22s-.22.04-.58.04c-1.16,0-3.5-.38-3.5-3.74v-5.14Z"/>
      <path class="cls-1" d="M89.48,47.94h.56v-.26c0-1.94-1.06-2.6-2.5-2.6-1.66,0-2.84.96-2.84.96l-.64-1.04s1.32-1.14,3.58-1.14c2.42,0,3.76,1.34,3.76,3.86v6.44h-1.3v-1.1c0-.5.04-.84.04-.84h-.04s-.84,2.18-3.36,2.18c-1.68,0-3.42-.98-3.42-2.98,0-3.4,4.42-3.48,6.16-3.48ZM86.96,53.24c1.92,0,3.08-2,3.08-3.74v-.44h-.58c-1.58,0-4.74.06-4.74,2.28,0,.94.74,1.9,2.24,1.9Z"/>
      <path class="cls-1" d="M101.34,45.24h-5.04v8.92h-1.36v-8.92h-1.26v-1.14h1.26v-.36c0-3.32,2.34-3.74,3.48-3.74.38,0,.62.04.62.04v1.22s-.2-.04-.48-.04c-.78,0-2.26.28-2.26,2.52v.36h5.04v-.36c0-3.32,2.34-3.74,3.48-3.74.38,0,.62.04.62.04v1.22s-.2-.04-.48-.04c-.78,0-2.26.28-2.26,2.52v.36h2.58v1.14h-2.58v8.92h-1.36v-8.92Z"/>
      <path class="cls-1" d="M111.78,43.86c2.94,0,5.32,2.24,5.32,5.22s-2.38,5.32-5.32,5.32-5.32-2.28-5.32-5.32,2.38-5.22,5.32-5.22ZM111.78,53.18c2.16,0,3.92-1.76,3.92-4.1s-1.76-3.98-3.92-3.98-3.92,1.7-3.92,3.98,1.76,4.1,3.92,4.1Z"/>
      <path class="cls-1" d="M119.64,44.1h1.34v1.78c0,.44-.04.8-.04.8h.04c.48-1.52,1.6-2.68,3.18-2.68.28,0,.54.06.54.06v1.34s-.24-.04-.5-.04c-1.42,0-2.48,1.12-2.92,2.6-.2.64-.28,1.32-.28,1.96v4.24h-1.36v-10.06Z"/>
      <path class="cls-1" d="M130.54,43.86c2.44,0,3.28,1.9,3.28,1.9h.04s-.04-.34-.04-.76v-4.9h1.36v14.06h-1.32v-1.06c0-.44.04-.72.04-.72h-.04s-.82,2.02-3.46,2.02-4.38-2.16-4.38-5.28,1.88-5.26,4.52-5.26ZM130.6,53.18c1.68,0,3.26-1.2,3.26-4.06,0-2.04-1.04-4.04-3.2-4.04-1.78,0-3.24,1.5-3.24,4.04s1.3,4.06,3.18,4.06Z"/>
      <path class="cls-1" d="M144.22,45.36h-1.32v-1.14h1.34v-2.9h1.34v2.9h2.52v1.14h-2.52v5c0,2.36,1.5,2.66,2.26,2.66.28,0,.46-.04.46-.04v1.22s-.22.04-.58.04c-1.16,0-3.5-.38-3.5-3.74v-5.14Z"/>
      <path class="cls-1" d="M150.54,40.1h1.36v5.44c0,.46-.04.82-.04.82h.04c.38-.96,1.72-2.5,4-2.5,2.48,0,3.36,1.42,3.36,3.9v6.4h-1.36v-6.04c0-1.58-.24-2.98-2.18-2.98-1.72,0-3.2,1.18-3.66,2.86-.12.4-.16.86-.16,1.34v4.82h-1.36v-14.06Z"/>
      <path class="cls-1" d="M166.66,43.86c2.78,0,4.2,2.14,4.2,4.64,0,.24-.04.7-.04.7h-7.72c.06,2.58,1.82,3.98,3.9,3.98,1.84,0,3.06-1.22,3.06-1.22l.62,1.04s-1.46,1.4-3.72,1.4c-3,0-5.26-2.16-5.26-5.26,0-3.3,2.24-5.28,4.96-5.28ZM169.48,48.08c-.08-2.1-1.36-3.08-2.86-3.08-1.68,0-3.14,1.06-3.46,3.08h6.32Z"/>
      <path class="cls-1" d="M173.46,44.1h1.34v1.5c0,.44-.04.8-.04.8h.04c.48-1.36,2.08-2.54,3.64-2.54,1.86,0,2.82.86,3.12,2.52h.04c.54-1.36,2-2.52,3.7-2.52,2.44,0,3.34,1.42,3.34,3.9v6.4h-1.36v-6.06c0-1.64-.34-3-2.18-3-1.54,0-2.8,1.36-3.18,2.84-.14.44-.18.92-.18,1.46v4.76h-1.36v-6.06c0-1.52-.22-3-2.12-3-1.64,0-2.88,1.42-3.3,2.96-.1.42-.14.88-.14,1.34v4.76h-1.36v-10.06Z"/>
      <path class="cls-1" d="M191.82,52.56h1.58v1.6h-1.58v-1.6Z"/>
    </g>
  </g>
</svg>