<?xml version="1.0" encoding="UTF-8"?>
<svg id="Layer_2" data-name="Layer 2" xmlns="http://www.w3.org/2000/svg" viewBox="0 0 273.44 41.68">
  <defs>
    <style>
      .cls-1 {
        fill: #fff;
      }
    </style>
  </defs>
  <g id="Layer_1-2" data-name="Layer 1">
    <g>
      <path class="cls-1" d="M54.98.24h8.5v2.22h-5.92v3.72h4.78v2.22h-4.78v3.82h6.24v2.22h-8.82V.24Z"/>
      <path class="cls-1" d="M68.66.24h2.78l3.12,9.26c.28.82.52,2.08.54,2.08h.04s.26-1.26.54-2.08L78.82.24h2.76l-5.18,14.2h-2.56L68.66.24Z"/>
      <path class="cls-1" d="M87.36.24h8.5v2.22h-5.92v3.72h4.78v2.22h-4.78v3.82h6.24v2.22h-8.82V.24Z"/>
      <path class="cls-1" d="M102.86.24h4.58c1.54,0,2.24.12,2.86.4,1.42.64,2.32,2,2.32,3.88,0,1.7-.9,3.28-2.4,3.88v.04s.2.2.48.7l2.92,5.3h-2.88l-2.82-5.3h-2.48v5.3h-2.58V.24ZM107.76,6.9c1.38,0,2.24-.82,2.24-2.24s-.58-2.2-2.6-2.2h-1.96v4.44h2.32Z"/>
      <path class="cls-1" d="M122.74,8.5L118.02.24h2.92l2.22,4.18c.46.88.84,1.92.86,1.9h.04s.4-1.02.86-1.9l2.2-4.18h2.92l-4.72,8.26v5.94h-2.58v-5.94Z"/>
      <path class="cls-1" d="M151.06,0c3.46,0,5.24,1.94,5.24,1.94l-1.24,1.92s-1.62-1.5-3.88-1.5c-3,0-4.76,2.24-4.76,4.88s1.82,5.08,4.78,5.08c2.46,0,4.12-1.8,4.12-1.8l1.36,1.86s-1.96,2.3-5.58,2.3c-4.34,0-7.34-3.22-7.34-7.4s3.12-7.28,7.3-7.28Z"/>
      <path class="cls-1" d="M163.06.24h2.58v6.02h6.5V.24h2.58v14.2h-2.58v-5.96h-6.5v5.96h-2.58V.24Z"/>
      <path class="cls-1" d="M182.32.24h2.58v14.2h-2.58V.24Z"/>
      <path class="cls-1" d="M192.5.24h2.58v11.98h6.14v2.22h-8.72V.24Z"/>
      <path class="cls-1" d="M207.28.24h4.84c4.38,0,7.24,2.6,7.24,7.08s-2.86,7.12-7.24,7.12h-4.84V.24ZM211.98,12.22c2.88,0,4.72-1.7,4.72-4.9s-1.88-4.86-4.72-4.86h-2.12v9.76h2.12Z"/>
      <path class="cls-1" d="M0,27.24h4.84c4.38,0,7.24,2.6,7.24,7.08s-2.86,7.12-7.24,7.12H0v-14.2ZM4.7,39.22c2.88,0,4.72-1.7,4.72-4.9s-1.88-4.86-4.72-4.86h-2.12v9.76h2.12Z"/>
      <path class="cls-1" d="M18.78,27.24h8.5v2.22h-5.92v3.72h4.78v2.22h-4.78v3.82h6.24v2.22h-8.82v-14.2Z"/>
      <path class="cls-1" d="M34.6,37.8s1.54,1.5,3.54,1.5c1.08,0,2.06-.56,2.06-1.72,0-2.54-6.7-2.1-6.7-6.46,0-2.36,2.04-4.12,4.76-4.12s4.24,1.52,4.24,1.52l-1.12,2.1s-1.36-1.24-3.14-1.24c-1.2,0-2.14.7-2.14,1.7,0,2.52,6.68,1.9,6.68,6.44,0,2.26-1.72,4.16-4.68,4.16-3.16,0-4.9-1.94-4.9-1.94l1.4-1.94Z"/>
      <path class="cls-1" d="M49.36,27.24h8.5v2.22h-5.92v3.72h4.78v2.22h-4.78v3.82h6.24v2.22h-8.82v-14.2Z"/>
      <path class="cls-1" d="M64.86,27.24h4.58c1.54,0,2.24.12,2.86.4,1.42.64,2.32,2,2.32,3.88,0,1.7-.9,3.28-2.4,3.88v.04s.2.2.48.7l2.92,5.3h-2.88l-2.82-5.3h-2.48v5.3h-2.58v-14.2ZM69.76,33.9c1.38,0,2.24-.82,2.24-2.24s-.58-2.2-2.6-2.2h-1.96v4.44h2.32Z"/>
      <path class="cls-1" d="M80.1,27.24h2.78l3.12,9.26c.28.82.52,2.08.54,2.08h.04s.26-1.26.54-2.08l3.14-9.26h2.76l-5.18,14.2h-2.56l-5.18-14.2Z"/>
      <path class="cls-1" d="M98.8,27.24h8.5v2.22h-5.92v3.72h4.78v2.22h-4.78v3.82h6.24v2.22h-8.82v-14.2Z"/>
      <path class="cls-1" d="M114.62,37.8s1.54,1.5,3.54,1.5c1.08,0,2.06-.56,2.06-1.72,0-2.54-6.7-2.1-6.7-6.46,0-2.36,2.04-4.12,4.76-4.12s4.24,1.52,4.24,1.52l-1.12,2.1s-1.36-1.24-3.14-1.24c-1.2,0-2.14.7-2.14,1.7,0,2.52,6.68,1.9,6.68,6.44,0,2.26-1.72,4.16-4.68,4.16-3.16,0-4.9-1.94-4.9-1.94l1.4-1.94Z"/>
      <path class="cls-1" d="M141.18,29.46h-4.66v-2.22h11.9v2.22h-4.66v11.98h-2.58v-11.98Z"/>
      <path class="cls-1" d="M160.54,27c4.18,0,7.34,3.18,7.34,7.24s-3.16,7.44-7.34,7.44-7.34-3.26-7.34-7.44,3.16-7.24,7.34-7.24ZM160.54,39.32c2.6,0,4.68-2.16,4.68-5.08s-2.08-4.88-4.68-4.88-4.68,2.08-4.68,4.88,2.08,5.08,4.68,5.08Z"/>
      <path class="cls-1" d="M183.68,37.8s1.54,1.5,3.54,1.5c1.08,0,2.06-.56,2.06-1.72,0-2.54-6.7-2.1-6.7-6.46,0-2.36,2.04-4.12,4.76-4.12s4.24,1.52,4.24,1.52l-1.12,2.1s-1.36-1.24-3.14-1.24c-1.2,0-2.14.7-2.14,1.7,0,2.52,6.68,1.9,6.68,6.44,0,2.26-1.72,4.16-4.68,4.16-3.16,0-4.9-1.94-4.9-1.94l1.4-1.94Z"/>
      <path class="cls-1" d="M198.44,27.24h5.48c2.66,0,4.52,1.86,4.52,4.62s-1.86,4.68-4.52,4.68h-2.9v4.9h-2.58v-14.2ZM203.44,34.3c1.5,0,2.38-.96,2.38-2.44s-.88-2.4-2.34-2.4h-2.46v4.84h2.42Z"/>
      <path class="cls-1" d="M214.72,27.24h2.58v11.98h6.14v2.22h-8.72v-14.2Z"/>
      <path class="cls-1" d="M237.02,37.8h-4.98l-1.2,3.64h-2.66l5-14.2h2.7l5,14.2h-2.66l-1.2-3.64ZM234.52,29.7s-.32,1.4-.6,2.2l-1.26,3.8h3.72l-1.26-3.8c-.26-.8-.56-2.2-.56-2.2h-.04Z"/>
      <path class="cls-1" d="M247.02,37.8s1.54,1.5,3.54,1.5c1.08,0,2.06-.56,2.06-1.72,0-2.54-6.7-2.1-6.7-6.46,0-2.36,2.04-4.12,4.76-4.12s4.24,1.52,4.24,1.52l-1.12,2.1s-1.36-1.24-3.14-1.24c-1.2,0-2.14.7-2.14,1.7,0,2.52,6.68,1.9,6.68,6.44,0,2.26-1.72,4.16-4.68,4.16-3.16,0-4.9-1.94-4.9-1.94l1.4-1.94Z"/>
      <path class="cls-1" d="M261.78,27.24h2.58v6.02h6.5v-6.02h2.58v14.2h-2.58v-5.96h-6.5v5.96h-2.58v-14.2Z"/>
    </g>
  </g>
</svg>