<?xml version="1.0" encoding="UTF-8"?>
<svg id="Layer_2" data-name="Layer 2" xmlns="http://www.w3.org/2000/svg" viewBox="0 0 202.37 11.75">
  <defs>
    <style>
      .cls-1 {
        fill: #fff;
      }
    </style>
  </defs>
  <g id="Layer_1-2" data-name="Layer 1">
    <g>
      <path class="cls-1" d="M0,.19h2.07v9.59h4.91v1.78H0V.19Z"/>
      <path class="cls-1" d="M11.82.19h2.06v11.36h-2.06V.19Z"/>
      <path class="cls-1" d="M19.97.19h6.53v1.78h-4.47v3.22h3.76v1.78h-3.76v4.59h-2.06V.19Z"/>
      <path class="cls-1" d="M31.63.19h6.8v1.78h-4.74v2.98h3.83v1.78h-3.83v3.06h4.99v1.78h-7.06V.19Z"/>
      <path class="cls-1" d="M43.44,6.1h4.82v1.78h-4.82v-1.78Z"/>
      <path class="cls-1" d="M53.95,8.64s1.23,1.2,2.83,1.2c.86,0,1.65-.45,1.65-1.38,0-2.03-5.36-1.68-5.36-5.17,0-1.89,1.63-3.3,3.81-3.3s3.39,1.22,3.39,1.22l-.9,1.68s-1.09-.99-2.51-.99c-.96,0-1.71.56-1.71,1.36,0,2.02,5.35,1.52,5.35,5.15,0,1.81-1.38,3.33-3.75,3.33-2.53,0-3.92-1.55-3.92-1.55l1.12-1.55Z"/>
      <path class="cls-1" d="M71.41,8.64h-3.99l-.96,2.91h-2.13L68.34.19h2.16l4,11.36h-2.13l-.96-2.91ZM69.41,2.16s-.26,1.12-.48,1.76l-1.01,3.04h2.98l-1.01-3.04c-.21-.64-.45-1.76-.45-1.76h-.03Z"/>
      <path class="cls-1" d="M77.25.19h2.22l2.5,7.41c.22.66.42,1.66.43,1.66h.03s.21-1.01.43-1.66l2.51-7.41h2.21l-4.15,11.36h-2.05L77.25.19Z"/>
      <path class="cls-1" d="M92.21.19h2.07v11.36h-2.07V.19Z"/>
      <path class="cls-1" d="M100.35.19h2.07l4.31,6.56c.43.66.94,1.76.94,1.76h.03s-.11-1.09-.11-1.76V.19h2.05v11.36h-2.05l-4.31-6.55c-.43-.66-.94-1.76-.94-1.76h-.03s.11,1.09.11,1.76v6.55h-2.07V.19Z"/>
      <path class="cls-1" d="M120.8,0c2.79,0,4.23,1.44,4.23,1.44l-1.02,1.54s-1.22-1.09-3.03-1.09c-2.54,0-3.91,1.76-3.91,3.91,0,2.46,1.68,4.07,3.81,4.07,1.71,0,2.85-1.18,2.85-1.18v-1.33h-1.75v-1.78h3.6v5.99h-1.76v-.54c0-.24.02-.48.02-.48h-.03s-1.18,1.22-3.3,1.22c-2.99,0-5.57-2.32-5.57-5.89,0-3.3,2.48-5.86,5.86-5.86Z"/>
      <path class="cls-1" d="M138.41,8.64s1.23,1.2,2.83,1.2c.86,0,1.65-.45,1.65-1.38,0-2.03-5.36-1.68-5.36-5.17,0-1.89,1.63-3.3,3.81-3.3s3.39,1.22,3.39,1.22l-.9,1.68s-1.09-.99-2.51-.99c-.96,0-1.71.56-1.71,1.36,0,2.02,5.35,1.52,5.35,5.15,0,1.81-1.38,3.33-3.75,3.33-2.53,0-3.92-1.55-3.92-1.55l1.12-1.55Z"/>
      <path class="cls-1" d="M150.22.19h2.06v4.63h1.47l2.67-4.63h2.24l-3.22,5.41v.03l3.41,5.92h-2.32l-2.79-4.96h-1.47v4.96h-2.06V.19Z"/>
      <path class="cls-1" d="M163.77.19h2.06v11.36h-2.06V.19Z"/>
      <path class="cls-1" d="M171.92.19h2.07v9.59h4.91v1.78h-6.98V.19Z"/>
      <path class="cls-1" d="M183.74.19h2.06v9.59h4.91v1.78h-6.98V.19Z"/>
      <path class="cls-1" d="M195.82,8.64s1.23,1.2,2.83,1.2c.86,0,1.65-.45,1.65-1.38,0-2.03-5.36-1.68-5.36-5.17,0-1.89,1.63-3.3,3.81-3.3s3.39,1.22,3.39,1.22l-.9,1.68s-1.09-.99-2.51-.99c-.96,0-1.71.56-1.71,1.36,0,2.02,5.35,1.52,5.35,5.15,0,1.81-1.38,3.33-3.75,3.33-2.53,0-3.92-1.55-3.92-1.55l1.12-1.55Z"/>
    </g>
  </g>
</svg>