<?xml version="1.0" encoding="UTF-8"?>
<svg id="Layer_2" data-name="Layer 2" xmlns="http://www.w3.org/2000/svg" viewBox="0 0 217.7 53.68">
  <defs>
    <style>
      .cls-1 {
        fill: #a8052b;
      }
    </style>
  </defs>
  <g id="Layer_1-2" data-name="Layer 1">
    <g>
      <path class="cls-1" d="M0,.09h1.31v6.08h7.75V.09h1.31v13.36h-1.31v-6.1H1.31v6.1H0V.09Z"/>
      <path class="cls-1" d="M17.92,3.67c2.64,0,3.99,2.03,3.99,4.41,0,.23-.04.66-.04.66h-7.33c.06,2.45,1.73,3.78,3.7,3.78,1.75,0,2.91-1.16,2.91-1.16l.59.99s-1.39,1.33-3.53,1.33c-2.85,0-5-2.05-5-5,0-3.13,2.13-5.02,4.71-5.02ZM20.59,7.67c-.08-2-1.29-2.93-2.72-2.93-1.6,0-2.98,1.01-3.29,2.93h6Z"/>
      <path class="cls-1" d="M24.28.09h1.29v10.81c0,1.25.57,1.44,1.06,1.44.17,0,.32-.02.32-.02v1.16s-.23.04-.48.04c-.8,0-2.2-.25-2.2-2.34V.09Z"/>
      <path class="cls-1" d="M29.07,3.89h1.24v.93c0,.42-.04.74-.04.74h.04s.78-1.9,3.31-1.9,4.16,2.05,4.16,5.02-1.8,5-4.27,5c-2.3,0-3.13-1.82-3.13-1.82h-.04s.04.34.04.84v4.56h-1.29V3.89ZM33.36,12.54c1.69,0,3.08-1.42,3.08-3.86s-1.23-3.84-3.02-3.84c-1.6,0-3.1,1.14-3.1,3.86,0,1.92,1.06,3.84,3.04,3.84Z"/>
      <path class="cls-1" d="M45.37.09h1.29v4.64c0,.44-.04.78-.04.78h.04s.8-1.84,3.25-1.84,4.16,2.05,4.16,5.02-1.8,5-4.31,5c-2.28,0-3.13-1.86-3.13-1.86h-.04s.04.32.04.78v.86h-1.25V.09ZM49.67,12.54c1.69,0,3.08-1.42,3.08-3.86s-1.23-3.84-3.02-3.84c-1.6,0-3.1,1.14-3.1,3.86,0,1.92.99,3.84,3.04,3.84Z"/>
      <path class="cls-1" d="M56.56,3.89h1.27v1.69c0,.42-.04.76-.04.76h.04c.46-1.44,1.52-2.54,3.02-2.54.27,0,.51.06.51.06v1.27s-.23-.04-.48-.04c-1.35,0-2.36,1.06-2.77,2.47-.19.61-.27,1.25-.27,1.86v4.03h-1.29V3.89Z"/>
      <path class="cls-1" d="M63.29.09h1.35v1.62h-1.35V.09ZM63.33,3.89h1.29v9.56h-1.29V3.89Z"/>
      <path class="cls-1" d="M67.73,3.89h1.27v1.42c0,.42-.04.76-.04.76h.04c.34-.87,1.56-2.41,3.82-2.41s3.19,1.35,3.19,3.71v6.08h-1.29v-5.74c0-1.5-.23-2.83-2.07-2.83-1.63,0-3.04,1.12-3.48,2.7-.11.4-.15.84-.15,1.29v4.58h-1.29V3.89Z"/>
      <path class="cls-1" d="M82.31,16.28c1.86,0,3.34-.87,3.34-3v-.87c0-.36.04-.68.04-.68h-.04c-.57,1.06-1.54,1.67-3.02,1.67-2.56,0-4.26-2.03-4.26-4.9s1.58-4.83,4.14-4.83,3.15,1.6,3.15,1.6h.04s-.02-.11-.02-.32v-1.04h1.25v9.33c0,3.04-2.24,4.22-4.58,4.22-1.1,0-2.2-.29-3.13-.76l.49-1.06s1.18.67,2.58.67ZM85.67,8.49c0-2.79-1.33-3.65-3.02-3.65-1.86,0-2.94,1.35-2.94,3.63s1.24,3.76,3.13,3.76c1.5,0,2.83-.93,2.83-3.74Z"/>
      <path class="cls-1" d="M95.53,5.09h-1.25v-1.08h1.27V1.25h1.27v2.75h2.39v1.08h-2.39v4.75c0,2.24,1.42,2.53,2.15,2.53.27,0,.44-.04.44-.04v1.16s-.21.04-.55.04c-1.1,0-3.32-.36-3.32-3.55v-4.88Z"/>
      <path class="cls-1" d="M101.53,3.89h1.27v1.69c0,.42-.04.76-.04.76h.04c.46-1.44,1.52-2.54,3.02-2.54.27,0,.51.06.51.06v1.27s-.23-.04-.47-.04c-1.35,0-2.36,1.06-2.77,2.47-.19.61-.27,1.25-.27,1.86v4.03h-1.29V3.89Z"/>
      <path class="cls-1" d="M113.37,7.54h.53v-.25c0-1.84-1.01-2.47-2.38-2.47-1.58,0-2.7.91-2.7.91l-.61-.99s1.25-1.08,3.4-1.08c2.3,0,3.57,1.27,3.57,3.67v6.12h-1.24v-1.04c0-.48.04-.8.04-.8h-.04s-.8,2.07-3.19,2.07c-1.6,0-3.25-.93-3.25-2.83,0-3.23,4.2-3.31,5.85-3.31ZM110.98,12.58c1.82,0,2.93-1.9,2.93-3.55v-.42h-.55c-1.5,0-4.5.06-4.5,2.17,0,.89.7,1.8,2.13,1.8Z"/>
      <path class="cls-1" d="M118.18,3.89h1.27v1.42c0,.42-.04.76-.04.76h.04c.34-.87,1.56-2.41,3.82-2.41s3.19,1.35,3.19,3.71v6.08h-1.29v-5.74c0-1.5-.23-2.83-2.07-2.83-1.63,0-3.04,1.12-3.48,2.7-.11.4-.15.84-.15,1.29v4.58h-1.29V3.89Z"/>
      <path class="cls-1" d="M129.37,11.36s1.06,1.16,2.85,1.16c1.03,0,1.92-.51,1.92-1.52,0-2.09-5.15-1.58-5.15-4.69,0-1.71,1.54-2.64,3.27-2.64,2.01,0,2.95,1.04,2.95,1.04l-.59.99s-.82-.87-2.39-.87c-.97,0-1.9.42-1.9,1.48,0,2.11,5.15,1.54,5.15,4.69,0,1.56-1.35,2.68-3.27,2.68-2.32,0-3.53-1.39-3.53-1.39l.7-.93Z"/>
      <path class="cls-1" d="M138.3,5.09h-1.2v-1.08h1.2v-.46c0-3.15,2.22-3.55,3.31-3.55.36,0,.59.04.59.04v1.16s-.19-.04-.46-.04c-.74,0-2.15.27-2.15,2.39v.46h2.45v1.08h-2.45v8.36h-1.29V5.09Z"/>
      <path class="cls-1" d="M148.21,3.67c2.79,0,5.05,2.13,5.05,4.96s-2.26,5.05-5.05,5.05-5.05-2.17-5.05-5.05,2.26-4.96,5.05-4.96ZM148.21,12.52c2.05,0,3.72-1.67,3.72-3.89s-1.67-3.78-3.72-3.78-3.72,1.62-3.72,3.78,1.67,3.89,3.72,3.89Z"/>
      <path class="cls-1" d="M155.68,3.89h1.27v1.69c0,.42-.04.76-.04.76h.04c.46-1.44,1.52-2.54,3.02-2.54.27,0,.51.06.51.06v1.27s-.23-.04-.48-.04c-1.35,0-2.36,1.06-2.77,2.47-.19.61-.27,1.25-.27,1.86v4.03h-1.29V3.89Z"/>
      <path class="cls-1" d="M162.45,3.89h1.27v1.42c0,.42-.04.76-.04.76h.04c.46-1.29,1.98-2.41,3.46-2.41,1.77,0,2.68.82,2.96,2.39h.04c.51-1.29,1.9-2.39,3.51-2.39,2.32,0,3.17,1.35,3.17,3.71v6.08h-1.29v-5.76c0-1.56-.32-2.85-2.07-2.85-1.46,0-2.66,1.29-3.02,2.7-.13.42-.17.87-.17,1.39v4.52h-1.29v-5.76c0-1.44-.21-2.85-2.01-2.85-1.56,0-2.74,1.35-3.13,2.81-.09.4-.13.83-.13,1.27v4.52h-1.29V3.89Z"/>
      <path class="cls-1" d="M184.92,7.54h.53v-.25c0-1.84-1.01-2.47-2.38-2.47-1.58,0-2.7.91-2.7.91l-.61-.99s1.25-1.08,3.4-1.08c2.3,0,3.57,1.27,3.57,3.67v6.12h-1.24v-1.04c0-.48.04-.8.04-.8h-.04s-.8,2.07-3.19,2.07c-1.6,0-3.25-.93-3.25-2.83,0-3.23,4.2-3.31,5.85-3.31ZM182.53,12.58c1.82,0,2.93-1.9,2.93-3.55v-.42h-.55c-1.5,0-4.5.06-4.5,2.17,0,.89.7,1.8,2.13,1.8Z"/>
      <path class="cls-1" d="M190.03,5.09h-1.25v-1.08h1.27V1.25h1.27v2.75h2.39v1.08h-2.39v4.75c0,2.24,1.42,2.53,2.15,2.53.27,0,.44-.04.44-.04v1.16s-.21.04-.55.04c-1.1,0-3.32-.36-3.32-3.55v-4.88Z"/>
      <path class="cls-1" d="M196,.09h1.35v1.62h-1.35V.09ZM196.04,3.89h1.29v9.56h-1.29V3.89Z"/>
      <path class="cls-1" d="M199.13,3.89h1.37l2.66,7.01c.17.47.32,1.14.32,1.14h.04s.15-.65.34-1.14l2.64-7.01h1.35l-3.65,9.56h-1.41l-3.67-9.56Z"/>
      <path class="cls-1" d="M213.71,3.67c2.64,0,3.99,2.03,3.99,4.41,0,.23-.04.66-.04.66h-7.33c.06,2.45,1.73,3.78,3.71,3.78,1.75,0,2.91-1.16,2.91-1.16l.59.99s-1.39,1.33-3.53,1.33c-2.85,0-5-2.05-5-5,0-3.13,2.13-5.02,4.71-5.02ZM216.39,7.67c-.08-2-1.29-2.93-2.72-2.93-1.6,0-2.98,1.01-3.29,2.93h6Z"/>
      <path class="cls-1" d="M8.21,23.89h1.24v.93c0,.42-.04.74-.04.74h.04s.78-1.9,3.31-1.9,4.16,2.05,4.16,5.02-1.8,5-4.27,5c-2.3,0-3.13-1.82-3.13-1.82h-.04s.04.34.04.84v4.56h-1.29v-13.35ZM12.5,32.54c1.69,0,3.08-1.42,3.08-3.86s-1.23-3.84-3.02-3.84c-1.6,0-3.1,1.14-3.1,3.86,0,1.92,1.06,3.84,3.04,3.84Z"/>
      <path class="cls-1" d="M19.4,23.89h1.27v1.69c0,.42-.04.76-.04.76h.04c.46-1.44,1.52-2.54,3.02-2.54.27,0,.51.06.51.06v1.27s-.23-.04-.48-.04c-1.35,0-2.36,1.06-2.77,2.47-.19.61-.27,1.25-.27,1.86v4.03h-1.29v-9.56Z"/>
      <path class="cls-1" d="M30.4,23.67c2.79,0,5.05,2.13,5.05,4.96s-2.26,5.05-5.05,5.05-5.05-2.17-5.05-5.05,2.26-4.96,5.05-4.96ZM30.4,32.52c2.05,0,3.72-1.67,3.72-3.89s-1.67-3.78-3.72-3.78-3.72,1.62-3.72,3.78,1.67,3.89,3.72,3.89Z"/>
      <path class="cls-1" d="M41.17,36.28c1.86,0,3.34-.87,3.34-3v-.87c0-.36.04-.68.04-.68h-.04c-.57,1.06-1.54,1.67-3.02,1.67-2.56,0-4.25-2.03-4.25-4.9s1.58-4.83,4.14-4.83,3.15,1.6,3.15,1.6h.04s-.02-.11-.02-.32v-1.04h1.25v9.33c0,3.04-2.24,4.22-4.58,4.22-1.1,0-2.2-.29-3.13-.76l.49-1.06s1.18.67,2.58.67ZM44.53,28.49c0-2.79-1.33-3.65-3.02-3.65-1.86,0-2.94,1.35-2.94,3.63s1.23,3.76,3.13,3.76c1.5,0,2.83-.93,2.83-3.74Z"/>
      <path class="cls-1" d="M48.92,23.89h1.27v1.69c0,.42-.04.76-.04.76h.04c.46-1.44,1.52-2.54,3.02-2.54.27,0,.51.06.51.06v1.27s-.23-.04-.48-.04c-1.35,0-2.36,1.06-2.77,2.47-.19.61-.27,1.25-.27,1.86v4.03h-1.29v-9.56Z"/>
      <path class="cls-1" d="M60.76,27.54h.53v-.25c0-1.84-1.01-2.47-2.38-2.47-1.58,0-2.7.91-2.7.91l-.61-.99s1.25-1.08,3.4-1.08c2.3,0,3.57,1.27,3.57,3.67v6.12h-1.23v-1.04c0-.48.04-.8.04-.8h-.04s-.8,2.07-3.19,2.07c-1.6,0-3.25-.93-3.25-2.83,0-3.23,4.2-3.31,5.85-3.31ZM58.37,32.58c1.82,0,2.93-1.9,2.93-3.55v-.42h-.55c-1.5,0-4.5.06-4.5,2.17,0,.89.7,1.8,2.13,1.8Z"/>
      <path class="cls-1" d="M65.57,23.89h1.27v1.42c0,.42-.04.76-.04.76h.04c.46-1.29,1.98-2.41,3.46-2.41,1.77,0,2.68.82,2.96,2.39h.04c.51-1.29,1.9-2.39,3.51-2.39,2.32,0,3.17,1.35,3.17,3.71v6.08h-1.29v-5.76c0-1.56-.32-2.85-2.07-2.85-1.46,0-2.66,1.29-3.02,2.7-.13.42-.17.87-.17,1.39v4.52h-1.29v-5.76c0-1.44-.21-2.85-2.01-2.85-1.56,0-2.74,1.35-3.13,2.81-.09.4-.13.83-.13,1.27v4.52h-1.29v-9.56Z"/>
      <path class="cls-1" d="M82.9,31.36s1.06,1.16,2.85,1.16c1.03,0,1.92-.51,1.92-1.52,0-2.09-5.15-1.58-5.15-4.69,0-1.71,1.54-2.64,3.27-2.64,2.01,0,2.95,1.04,2.95,1.04l-.59.99s-.82-.87-2.39-.87c-.97,0-1.9.42-1.9,1.48,0,2.11,5.15,1.54,5.15,4.69,0,1.56-1.35,2.68-3.27,2.68-2.32,0-3.53-1.39-3.53-1.39l.7-.93Z"/>
      <path class="cls-1" d="M96.86,25.09h-1.25v-1.08h1.27v-2.75h1.27v2.75h2.39v1.08h-2.39v4.75c0,2.24,1.42,2.53,2.15,2.53.27,0,.44-.04.44-.04v1.16s-.21.04-.55.04c-1.1,0-3.32-.36-3.32-3.55v-4.88Z"/>
      <path class="cls-1" d="M107.21,23.67c2.79,0,5.05,2.13,5.05,4.96s-2.26,5.05-5.05,5.05-5.05-2.17-5.05-5.05,2.26-4.96,5.05-4.96ZM107.21,32.52c2.05,0,3.72-1.67,3.72-3.89s-1.67-3.78-3.72-3.78-3.72,1.62-3.72,3.78,1.67,3.89,3.72,3.89Z"/>
      <path class="cls-1" d="M120.15,25.09h-1.25v-1.08h1.27v-2.75h1.27v2.75h2.39v1.08h-2.39v4.75c0,2.24,1.42,2.53,2.15,2.53.27,0,.44-.04.44-.04v1.16s-.21.04-.55.04c-1.1,0-3.32-.36-3.32-3.55v-4.88Z"/>
      <path class="cls-1" d="M126.16,20.09h1.29v5.17c0,.44-.04.78-.04.78h.04c.36-.91,1.63-2.38,3.8-2.38,2.36,0,3.19,1.35,3.19,3.71v6.08h-1.29v-5.74c0-1.5-.23-2.83-2.07-2.83-1.63,0-3.04,1.12-3.48,2.72-.11.38-.15.82-.15,1.27v4.58h-1.29v-13.36Z"/>
      <path class="cls-1" d="M141.77,23.67c2.79,0,5.05,2.13,5.05,4.96s-2.26,5.05-5.05,5.05-5.05-2.17-5.05-5.05,2.26-4.96,5.05-4.96ZM141.77,32.52c2.05,0,3.72-1.67,3.72-3.89s-1.67-3.78-3.72-3.78-3.72,1.62-3.72,3.78,1.67,3.89,3.72,3.89Z"/>
      <path class="cls-1" d="M149.17,31.36s1.06,1.16,2.85,1.16c1.03,0,1.92-.51,1.92-1.52,0-2.09-5.15-1.58-5.15-4.69,0-1.71,1.54-2.64,3.27-2.64,2.01,0,2.95,1.04,2.95,1.04l-.59.99s-.82-.87-2.39-.87c-.97,0-1.9.42-1.9,1.48,0,2.11,5.15,1.54,5.15,4.69,0,1.56-1.35,2.68-3.27,2.68-2.32,0-3.53-1.39-3.53-1.39l.7-.93Z"/>
      <path class="cls-1" d="M161.71,23.67c2.64,0,3.99,2.03,3.99,4.41,0,.23-.04.66-.04.66h-7.33c.06,2.45,1.73,3.78,3.71,3.78,1.75,0,2.91-1.16,2.91-1.16l.59.99s-1.39,1.33-3.53,1.33c-2.85,0-5-2.05-5-5,0-3.13,2.13-5.02,4.71-5.02ZM164.38,27.67c-.08-2-1.29-2.93-2.72-2.93-1.6,0-2.98,1.01-3.29,2.93h6Z"/>
      <path class="cls-1" d="M172.04,23.89h1.37l2.32,7.12c.15.46.29,1.03.29,1.03h.04s.13-.57.29-1.03l2.36-7.09h1.27l2.36,7.09c.15.46.28,1.03.28,1.03h.04s.13-.55.29-1.03l2.32-7.12h1.37l-3.23,9.56h-1.41l-2.34-6.8c-.17-.48-.3-1.03-.3-1.03h-.04s-.13.55-.29,1.03l-2.34,6.8h-1.41l-3.23-9.56Z"/>
      <path class="cls-1" d="M188.5,20.09h1.29v5.17c0,.44-.04.78-.04.78h.04c.36-.91,1.63-2.38,3.8-2.38,2.36,0,3.19,1.35,3.19,3.71v6.08h-1.29v-5.74c0-1.5-.23-2.83-2.07-2.83-1.63,0-3.04,1.12-3.48,2.72-.11.38-.15.82-.15,1.27v4.58h-1.29v-13.36Z"/>
      <path class="cls-1" d="M204.11,23.67c2.79,0,5.05,2.13,5.05,4.96s-2.26,5.05-5.05,5.05-5.05-2.17-5.05-5.05,2.26-4.96,5.05-4.96ZM204.11,32.52c2.05,0,3.72-1.67,3.72-3.89s-1.67-3.78-3.72-3.78-3.72,1.62-3.72,3.78,1.67,3.89,3.72,3.89Z"/>
      <path class="cls-1" d="M37.26,43.67c2.34,0,3.5,1.37,3.5,1.37l-.67.97s-1.06-1.16-2.79-1.16c-2.09,0-3.72,1.56-3.72,3.84s1.65,3.84,3.76,3.84c1.94,0,3.06-1.35,3.06-1.35l.59,1.01s-1.29,1.5-3.72,1.5c-2.83,0-5.02-2.03-5.02-5s2.2-5.02,5.02-5.02Z"/>
      <path class="cls-1" d="M48.41,47.54h.53v-.25c0-1.84-1.01-2.47-2.38-2.47-1.58,0-2.7.91-2.7.91l-.61-.99s1.25-1.08,3.4-1.08c2.3,0,3.57,1.27,3.57,3.67v6.12h-1.24v-1.04c0-.48.04-.8.04-.8h-.04s-.8,2.07-3.19,2.07c-1.6,0-3.25-.93-3.25-2.83,0-3.23,4.2-3.31,5.85-3.31ZM46.02,52.58c1.82,0,2.93-1.9,2.93-3.55v-.42h-.55c-1.5,0-4.5.06-4.5,2.17,0,.89.7,1.8,2.13,1.8Z"/>
      <path class="cls-1" d="M53.22,43.89h1.27v1.42c0,.42-.04.76-.04.76h.04c.34-.87,1.56-2.41,3.82-2.41s3.19,1.35,3.19,3.71v6.08h-1.29v-5.74c0-1.5-.23-2.83-2.07-2.83-1.63,0-3.04,1.12-3.48,2.7-.11.4-.15.84-.15,1.29v4.58h-1.29v-9.56Z"/>
      <path class="cls-1" d="M64.75,39.91h1.37l-1.06,3.27h-1.04l.74-3.27Z"/>
      <path class="cls-1" d="M68.82,45.09h-1.25v-1.08h1.27v-2.75h1.27v2.75h2.39v1.08h-2.39v4.75c0,2.24,1.42,2.53,2.15,2.53.27,0,.44-.04.44-.04v1.16s-.21.04-.55.04c-1.1,0-3.32-.36-3.32-3.55v-4.88Z"/>
      <path class="cls-1" d="M85,47.54h.53v-.25c0-1.84-1.01-2.47-2.38-2.47-1.58,0-2.7.91-2.7.91l-.61-.99s1.25-1.08,3.4-1.08c2.3,0,3.57,1.27,3.57,3.67v6.12h-1.23v-1.04c0-.48.04-.8.04-.8h-.04s-.8,2.07-3.19,2.07c-1.6,0-3.25-.93-3.25-2.83,0-3.23,4.2-3.31,5.85-3.31ZM82.61,52.58c1.82,0,2.93-1.9,2.93-3.55v-.42h-.55c-1.5,0-4.5.06-4.5,2.17,0,.89.7,1.8,2.13,1.8Z"/>
      <path class="cls-1" d="M96.27,44.98h-4.79v8.47h-1.29v-8.47h-1.2v-1.08h1.2v-.34c0-3.15,2.22-3.55,3.31-3.55.36,0,.59.04.59.04v1.16s-.19-.04-.46-.04c-.74,0-2.15.27-2.15,2.39v.34h4.79v-.34c0-3.15,2.22-3.55,3.31-3.55.36,0,.59.04.59.04v1.16s-.19-.04-.46-.04c-.74,0-2.15.27-2.15,2.39v.34h2.45v1.08h-2.45v8.47h-1.29v-8.47Z"/>
      <path class="cls-1" d="M106.19,43.67c2.79,0,5.05,2.13,5.05,4.96s-2.26,5.05-5.05,5.05-5.05-2.17-5.05-5.05,2.26-4.96,5.05-4.96ZM106.19,52.52c2.05,0,3.72-1.67,3.72-3.89s-1.67-3.78-3.72-3.78-3.72,1.62-3.72,3.78,1.67,3.89,3.72,3.89Z"/>
      <path class="cls-1" d="M113.66,43.89h1.27v1.69c0,.42-.04.76-.04.76h.04c.46-1.44,1.52-2.54,3.02-2.54.27,0,.51.06.51.06v1.27s-.23-.04-.47-.04c-1.35,0-2.36,1.06-2.77,2.47-.19.61-.27,1.25-.27,1.86v4.03h-1.29v-9.56Z"/>
      <path class="cls-1" d="M124.01,43.67c2.32,0,3.12,1.8,3.12,1.8h.04s-.04-.32-.04-.72v-4.65h1.29v13.36h-1.25v-1.01c0-.42.04-.68.04-.68h-.04s-.78,1.92-3.29,1.92-4.16-2.05-4.16-5.01,1.79-5,4.29-5ZM124.07,52.52c1.6,0,3.1-1.14,3.1-3.86,0-1.94-.99-3.84-3.04-3.84-1.69,0-3.08,1.42-3.08,3.84s1.23,3.86,3.02,3.86Z"/>
      <path class="cls-1" d="M137.01,45.09h-1.25v-1.08h1.27v-2.75h1.27v2.75h2.39v1.08h-2.39v4.75c0,2.24,1.42,2.53,2.15,2.53.27,0,.44-.04.44-.04v1.16s-.21.04-.55.04c-1.1,0-3.32-.36-3.32-3.55v-4.88Z"/>
      <path class="cls-1" d="M143.01,40.09h1.29v5.17c0,.44-.04.78-.04.78h.04c.36-.91,1.63-2.38,3.8-2.38,2.36,0,3.19,1.35,3.19,3.71v6.08h-1.29v-5.74c0-1.5-.23-2.83-2.07-2.83-1.63,0-3.04,1.12-3.48,2.72-.11.38-.15.82-.15,1.27v4.58h-1.29v-13.36Z"/>
      <path class="cls-1" d="M158.32,43.67c2.64,0,3.99,2.03,3.99,4.41,0,.23-.04.66-.04.66h-7.33c.06,2.45,1.73,3.78,3.7,3.78,1.75,0,2.91-1.16,2.91-1.16l.59.99s-1.39,1.33-3.53,1.33c-2.85,0-5-2.05-5-5,0-3.13,2.13-5.02,4.71-5.02ZM161,47.67c-.08-2-1.29-2.93-2.72-2.93-1.6,0-2.98,1.01-3.29,2.93h6Z"/>
      <path class="cls-1" d="M164.78,43.89h1.27v1.42c0,.42-.04.76-.04.76h.04c.46-1.29,1.98-2.41,3.46-2.41,1.77,0,2.68.82,2.96,2.39h.04c.51-1.29,1.9-2.39,3.51-2.39,2.32,0,3.17,1.35,3.17,3.71v6.08h-1.29v-5.76c0-1.56-.32-2.85-2.07-2.85-1.46,0-2.66,1.29-3.02,2.7-.13.42-.17.87-.17,1.39v4.52h-1.29v-5.76c0-1.44-.21-2.85-2.01-2.85-1.56,0-2.74,1.35-3.13,2.81-.09.4-.13.83-.13,1.27v4.52h-1.29v-9.56Z"/>
      <path class="cls-1" d="M182.23,51.93h1.5v1.52h-1.5v-1.52Z"/>
    </g>
  </g>
</svg>