<?xml version="1.0" encoding="UTF-8"?>
<svg id="Layer_2" data-name="Layer 2" xmlns="http://www.w3.org/2000/svg" viewBox="0 0 297.69 16.88">
  <defs>
    <style>
      .cls-1 {
        fill: #fff;
      }
    </style>
  </defs>
  <g id="Layer_1-2" data-name="Layer 1">
    <g>
      <path class="cls-1" d="M8.42,0c4,0,6.07,2.07,6.07,2.07l-1.47,2.21s-1.75-1.56-4.35-1.56c-3.66,0-5.61,2.53-5.61,5.61,0,3.54,2.41,5.84,5.47,5.84,2.46,0,4.09-1.7,4.09-1.7v-1.91h-2.51v-2.55h5.17v8.6h-2.53v-.78c0-.35.02-.69.02-.69h-.05s-1.7,1.75-4.74,1.75C3.7,16.88,0,13.54,0,8.42,0,3.68,3.56,0,8.42,0Z"/>
      <path class="cls-1" d="M23.18.28h5.27c1.77,0,2.58.14,3.29.46,1.63.74,2.67,2.3,2.67,4.46,0,1.95-1.03,3.77-2.76,4.46v.05s.23.23.55.8l3.36,6.09h-3.31l-3.24-6.09h-2.85v6.09h-2.97V.28ZM28.82,7.93c1.59,0,2.58-.94,2.58-2.58s-.67-2.53-2.99-2.53h-2.25v5.1h2.67Z"/>
      <path class="cls-1" d="M42.92.28h9.77v2.55h-6.81v4.28h5.5v2.55h-5.5v4.39h7.17v2.55h-10.14V.28Z"/>
      <path class="cls-1" d="M68.86,12.42h-5.73l-1.38,4.19h-3.06L64.44.28h3.1l5.75,16.33h-3.06l-1.38-4.19ZM65.99,3.1s-.37,1.61-.69,2.53l-1.45,4.37h4.28l-1.45-4.37c-.3-.92-.64-2.53-.64-2.53h-.05Z"/>
      <path class="cls-1" d="M82.43,2.83h-5.36V.28h13.68v2.55h-5.36v13.77h-2.97V2.83Z"/>
      <path class="cls-1" d="M97.52.28h9.77v2.55h-6.81v4.28h5.5v2.55h-5.5v4.39h7.17v2.55h-10.14V.28Z"/>
      <path class="cls-1" d="M115.34.28h5.27c1.77,0,2.58.14,3.29.46,1.63.74,2.67,2.3,2.67,4.46,0,1.95-1.03,3.77-2.76,4.46v.05s.23.23.55.8l3.36,6.09h-3.31l-3.24-6.09h-2.85v6.09h-2.97V.28ZM120.98,7.93c1.59,0,2.58-.94,2.58-2.58s-.67-2.53-2.99-2.53h-2.25v5.1h2.67Z"/>
      <path class="cls-1" d="M148.65,2.83h-5.36V.28h13.68v2.55h-5.36v13.77h-2.97V2.83Z"/>
      <path class="cls-1" d="M170.91,0c4.81,0,8.44,3.66,8.44,8.32s-3.63,8.55-8.44,8.55-8.44-3.75-8.44-8.55,3.63-8.32,8.44-8.32ZM170.91,14.17c2.99,0,5.38-2.48,5.38-5.84s-2.39-5.61-5.38-5.61-5.38,2.39-5.38,5.61,2.39,5.84,5.38,5.84Z"/>
      <path class="cls-1" d="M194.28,0c4,0,6.07,2.07,6.07,2.07l-1.47,2.21s-1.75-1.56-4.35-1.56c-3.66,0-5.61,2.53-5.61,5.61,0,3.54,2.41,5.84,5.47,5.84,2.46,0,4.09-1.7,4.09-1.7v-1.91h-2.51v-2.55h5.17v8.6h-2.53v-.78c0-.35.02-.69.02-.69h-.05s-1.7,1.75-4.74,1.75c-4.3,0-8-3.33-8-8.46,0-4.74,3.56-8.42,8.42-8.42Z"/>
      <path class="cls-1" d="M209.05.28h9.77v2.55h-6.81v4.28h5.5v2.55h-5.5v4.39h7.17v2.55h-10.14V.28Z"/>
      <path class="cls-1" d="M230.25,2.83h-5.36V.28h13.68v2.55h-5.36v13.77h-2.97V2.83Z"/>
      <path class="cls-1" d="M245.34.28h2.97v6.92h7.47V.28h2.97v16.33h-2.97v-6.85h-7.47v6.85h-2.97V.28Z"/>
      <path class="cls-1" d="M267.49.28h9.77v2.55h-6.81v4.28h5.5v2.55h-5.5v4.39h7.17v2.55h-10.14V.28Z"/>
      <path class="cls-1" d="M285.31.28h5.27c1.77,0,2.58.14,3.29.46,1.63.74,2.67,2.3,2.67,4.46,0,1.95-1.03,3.77-2.76,4.46v.05s.23.23.55.8l3.36,6.09h-3.31l-3.24-6.09h-2.85v6.09h-2.97V.28ZM290.95,7.93c1.59,0,2.58-.94,2.58-2.58s-.67-2.53-2.99-2.53h-2.25v5.1h2.67Z"/>
    </g>
  </g>
</svg>