<?xml version="1.0" encoding="UTF-8"?>
<svg id="Layer_2" data-name="Layer 2" xmlns="http://www.w3.org/2000/svg" viewBox="0 0 120.69 8.76">
  <defs>
    <style>
      .cls-1 {
        fill: #a8052b;
      }
    </style>
  </defs>
  <g id="Layer_1-2" data-name="Layer 1">
    <g>
      <path class="cls-1" d="M0,.14h4.67v1.03H1.19v2.78h2.96v1.03H1.19v3.62H0V.14Z"/>
      <path class="cls-1" d="M6,.14h1.18v1.19h-1.18V.14ZM6.01,2.54h1.16v6.07h-1.16V2.54Z"/>
      <path class="cls-1" d="M9,2.54h1.13v.8c0,.24-.02.44-.02.44h.02c.24-.53.96-1.39,2.28-1.39,1.43,0,2.09.78,2.09,2.33v3.89h-1.16v-3.62c0-.85-.18-1.52-1.15-1.52s-1.67.61-1.92,1.49c-.07.24-.1.52-.1.82v2.84h-1.16V2.54Z"/>
      <path class="cls-1" d="M18.59,2.4c1.4,0,1.87.96,1.87.96h.02s-.02-.18-.02-.41V.14h1.16v8.47h-1.1v-.58c0-.24.01-.41.01-.41h-.02s-.49,1.13-1.99,1.13c-1.64,0-2.67-1.3-2.67-3.18s1.14-3.18,2.75-3.18ZM18.74,7.75c.9,0,1.75-.64,1.75-2.18,0-1.08-.56-2.16-1.71-2.16-.96,0-1.75.79-1.75,2.17s.71,2.17,1.71,2.17Z"/>
      <path class="cls-1" d="M28.56,5.03L25.72.14h1.34l1.57,2.78c.26.47.52,1.07.52,1.07h.02s.25-.59.52-1.07l1.55-2.78h1.34l-2.83,4.88v3.59h-1.19v-3.59Z"/>
      <path class="cls-1" d="M35.75,2.4c1.81,0,3.27,1.33,3.27,3.17s-1.46,3.19-3.27,3.19-3.27-1.34-3.27-3.19,1.46-3.17,3.27-3.17ZM35.75,7.75c1.15,0,2.09-.91,2.09-2.18s-.94-2.16-2.09-2.16-2.09.9-2.09,2.16.95,2.18,2.09,2.18Z"/>
      <path class="cls-1" d="M40.32,2.54h1.16v3.62c0,.84.17,1.51,1.14,1.51,1.24,0,1.97-1.09,1.97-2.29v-2.84h1.16v6.07h-1.13v-.8c0-.25.02-.44.02-.44h-.02c-.25.6-1.04,1.39-2.23,1.39-1.37,0-2.08-.72-2.08-2.33v-3.89Z"/>
      <path class="cls-1" d="M47.58,2.54h1.13v1.06c0,.25-.02.46-.02.46h.02c.28-.89.98-1.58,1.92-1.58.16,0,.3.02.3.02v1.15s-.16-.04-.34-.04c-.74,0-1.43.53-1.7,1.43-.11.35-.14.72-.14,1.09v2.48h-1.16V2.54Z"/>
      <path class="cls-1" d="M55.4.14h1.19v7.44h3.79v1.03h-4.98V.14Z"/>
      <path class="cls-1" d="M64.34,2.4c1.81,0,3.27,1.33,3.27,3.17s-1.46,3.19-3.27,3.19-3.27-1.34-3.27-3.19,1.46-3.17,3.27-3.17ZM64.34,7.75c1.15,0,2.09-.91,2.09-2.18s-.94-2.16-2.09-2.16-2.09.9-2.09,2.16.95,2.18,2.09,2.18Z"/>
      <path class="cls-1" d="M71.82,2.4c1.52,0,2.28.89,2.28.89l-.55.82s-.65-.7-1.68-.7c-1.22,0-2.11.91-2.11,2.16s.89,2.18,2.15,2.18c1.13,0,1.87-.82,1.87-.82l.47.85s-.84.97-2.42.97c-1.91,0-3.25-1.36-3.25-3.18s1.34-3.18,3.25-3.18Z"/>
      <path class="cls-1" d="M78.73,4.82h.26v-.11c0-1-.56-1.33-1.33-1.33-.94,0-1.69.59-1.69.59l-.48-.85s.88-.72,2.27-.72c1.54,0,2.4.84,2.4,2.37v3.84h-1.08v-.58c0-.28.02-.48.02-.48h-.02s-.49,1.2-1.94,1.2c-1.04,0-2.06-.64-2.06-1.85,0-2,2.64-2.09,3.66-2.09ZM77.39,7.82c.98,0,1.62-1.03,1.62-1.93v-.19h-.3c-.88,0-2.46.06-2.46,1.15,0,.49.38.97,1.14.97Z"/>
      <path class="cls-1" d="M81.83.14h1.16v6.61c0,.73.29.86.65.86.11,0,.2-.01.2-.01v1.03s-.18.02-.38.02c-.66,0-1.63-.18-1.63-1.7V.14Z"/>
      <path class="cls-1" d="M90.19,5.03l-2.84-4.88h1.34l1.57,2.78c.26.47.52,1.07.52,1.07h.02s.25-.59.52-1.07l1.55-2.78h1.34l-2.83,4.88v3.59h-1.19v-3.59Z"/>
      <path class="cls-1" d="M95.77.14h1.25l1.94,4.58c.19.47.42,1.14.42,1.14h.02s.23-.67.42-1.14l1.94-4.58h1.25l.68,8.47h-1.18l-.42-5.34c-.04-.52-.01-1.25-.01-1.25h-.02s-.25.78-.46,1.25l-1.69,3.81h-1.06l-1.68-3.81c-.19-.46-.46-1.27-.46-1.27h-.02s.01.76-.02,1.27l-.41,5.34h-1.19l.68-8.47Z"/>
      <path class="cls-1" d="M109.47,0c2.04,0,3.08,1.12,3.08,1.12l-.59.89s-.98-.92-2.45-.92c-1.9,0-3.13,1.44-3.13,3.24s1.26,3.35,3.14,3.35c1.59,0,2.61-1.1,2.61-1.1l.64.85s-1.16,1.34-3.29,1.34c-2.54,0-4.33-1.94-4.33-4.43s1.85-4.33,4.3-4.33Z"/>
      <path class="cls-1" d="M118.6,6.18h-3.19l-.84,2.43h-1.22L116.4.14h1.25l3.05,8.47h-1.24l-.85-2.43ZM117.01,1.31s-.19.77-.34,1.2l-.95,2.69h2.57l-.94-2.69c-.14-.43-.32-1.2-.32-1.2h-.02Z"/>
    </g>
  </g>
</svg>