<?xml version="1.0" encoding="UTF-8"?>
<svg id="Layer_2" data-name="Layer 2" xmlns="http://www.w3.org/2000/svg" viewBox="0 0 339.61 21.43">
  <defs>
    <style>
      .cls-1 {
        fill: #a8052b;
      }
    </style>
  </defs>
  <g id="Layer_1-2" data-name="Layer 1">
    <g>
      <path class="cls-1" d="M0,.44h5.52c2.55,0,4.37,1.54,4.37,4.07,0,1.68-.8,2.9-2.05,3.52v.05c1.66.46,2.71,2.05,2.71,4,0,2.87-2.14,4.53-4.85,4.53H0V.44ZM5.52,7.45c1.63,0,2.74-1.15,2.74-2.83s-1.03-2.76-2.76-2.76H1.59v5.59h3.93ZM5.73,15.18c1.95,0,3.17-1.22,3.17-3.15s-1.31-3.2-3.2-3.2H1.59v6.35h4.14Z"/>
      <path class="cls-1" d="M18.84,4.76c3.2,0,4.83,2.46,4.83,5.33,0,.28-.05.81-.05.81h-8.88c.07,2.97,2.09,4.58,4.48,4.58,2.12,0,3.52-1.4,3.52-1.4l.71,1.2s-1.68,1.61-4.28,1.61c-3.45,0-6.05-2.48-6.05-6.05,0-3.79,2.58-6.07,5.7-6.07ZM22.08,9.61c-.09-2.41-1.56-3.54-3.29-3.54-1.93,0-3.61,1.22-3.98,3.54h7.27Z"/>
      <path class="cls-1" d="M31.92,4.76c2.83,0,4.23,1.66,4.23,1.66l-.8,1.17s-1.29-1.4-3.38-1.4c-2.53,0-4.51,1.89-4.51,4.64s2,4.65,4.55,4.65c2.35,0,3.7-1.63,3.7-1.63l.71,1.22s-1.56,1.82-4.51,1.82c-3.43,0-6.07-2.46-6.07-6.05s2.67-6.07,6.07-6.07Z"/>
      <path class="cls-1" d="M45.42,9.45h.64v-.3c0-2.23-1.22-2.99-2.87-2.99-1.91,0-3.27,1.1-3.27,1.1l-.74-1.2s1.52-1.31,4.12-1.31c2.78,0,4.32,1.54,4.32,4.44v7.4h-1.49v-1.26c0-.58.05-.97.05-.97h-.05s-.97,2.51-3.86,2.51c-1.93,0-3.93-1.13-3.93-3.43,0-3.91,5.08-4,7.08-4ZM42.53,15.54c2.21,0,3.54-2.3,3.54-4.3v-.51h-.67c-1.82,0-5.45.07-5.45,2.62,0,1.08.85,2.18,2.58,2.18Z"/>
      <path class="cls-1" d="M51.08,5.04h1.56v6.94c0,1.82.28,3.43,2.51,3.43,2.64,0,4.28-2.32,4.28-4.83v-5.54h1.56v11.57h-1.52v-1.72c0-.51.05-.92.05-.92h-.05c-.46,1.13-1.98,2.92-4.53,2.92-2.71,0-3.86-1.47-3.86-4.48v-7.36Z"/>
      <path class="cls-1" d="M64.68,14.07s1.29,1.4,3.45,1.4c1.24,0,2.32-.62,2.32-1.84,0-2.53-6.23-1.91-6.23-5.68,0-2.07,1.86-3.2,3.96-3.2,2.44,0,3.56,1.26,3.56,1.26l-.71,1.2s-.99-1.06-2.9-1.06c-1.17,0-2.3.51-2.3,1.79,0,2.55,6.23,1.86,6.23,5.68,0,1.89-1.63,3.24-3.96,3.24-2.81,0-4.28-1.68-4.28-1.68l.85-1.13Z"/>
      <path class="cls-1" d="M79.85,4.76c3.2,0,4.83,2.46,4.83,5.33,0,.28-.05.81-.05.81h-8.88c.07,2.97,2.09,4.58,4.48,4.58,2.12,0,3.52-1.4,3.52-1.4l.71,1.2s-1.68,1.61-4.28,1.61c-3.45,0-6.05-2.48-6.05-6.05,0-3.79,2.58-6.07,5.7-6.07ZM83.1,9.61c-.09-2.41-1.56-3.54-3.29-3.54-1.93,0-3.61,1.22-3.98,3.54h7.27Z"/>
      <path class="cls-1" d="M92.37,5.04h1.66l2.81,8.62c.18.55.34,1.24.34,1.24h.05s.16-.69.35-1.24l2.85-8.58h1.54l2.85,8.58c.18.55.35,1.24.35,1.24h.05s.16-.67.34-1.24l2.81-8.62h1.66l-3.91,11.57h-1.7l-2.83-8.23c-.21-.57-.37-1.24-.37-1.24h-.05s-.16.67-.34,1.24l-2.83,8.23h-1.7l-3.91-11.57Z"/>
      <path class="cls-1" d="M117.18,4.76c3.2,0,4.83,2.46,4.83,5.33,0,.28-.05.81-.05.81h-8.88c.07,2.97,2.09,4.58,4.48,4.58,2.12,0,3.52-1.4,3.52-1.4l.71,1.2s-1.68,1.61-4.28,1.61c-3.45,0-6.05-2.48-6.05-6.05,0-3.79,2.58-6.07,5.7-6.07ZM120.43,9.61c-.09-2.41-1.56-3.54-3.29-3.54-1.93,0-3.61,1.22-3.98,3.54h7.27Z"/>
      <path class="cls-1" d="M125.33.21h1.66l-1.29,3.96h-1.26l.9-3.96Z"/>
      <path class="cls-1" d="M129.81,5.04h1.54v2.05c0,.51-.05.92-.05.92h.05c.55-1.75,1.84-3.08,3.66-3.08.32,0,.62.07.62.07v1.54s-.28-.05-.57-.05c-1.63,0-2.85,1.29-3.36,2.99-.23.74-.32,1.52-.32,2.25v4.88h-1.56V5.04Z"/>
      <path class="cls-1" d="M142.76,4.76c3.2,0,4.83,2.46,4.83,5.33,0,.28-.05.81-.05.81h-8.88c.07,2.97,2.09,4.58,4.48,4.58,2.12,0,3.52-1.4,3.52-1.4l.71,1.2s-1.68,1.61-4.28,1.61c-3.45,0-6.05-2.48-6.05-6.05,0-3.79,2.58-6.07,5.7-6.07ZM146,9.61c-.09-2.41-1.56-3.54-3.29-3.54-1.93,0-3.61,1.22-3.98,3.54h7.27Z"/>
      <path class="cls-1" d="M164.26,0c4,0,6.07,2.07,6.07,2.07l-1.47,2.21s-1.75-1.56-4.35-1.56c-3.66,0-5.61,2.53-5.61,5.61,0,3.54,2.41,5.84,5.47,5.84,2.46,0,4.09-1.7,4.09-1.7v-1.91h-2.51v-2.55h5.17v8.6h-2.53v-.78c0-.35.02-.69.02-.69h-.05s-1.7,1.75-4.74,1.75c-4.3,0-8-3.33-8-8.46,0-4.74,3.56-8.42,8.42-8.42Z"/>
      <path class="cls-1" d="M173.97,4.88h2.81v2.02c0,.44-.05.83-.05.83h.05c.53-1.68,1.93-3.01,3.73-3.01.28,0,.53.05.53.05v2.87s-.3-.05-.69-.05c-1.24,0-2.64.71-3.2,2.46-.18.58-.25,1.22-.25,1.91v4.65h-2.92V4.88Z"/>
      <path class="cls-1" d="M188.14,4.6c3.38,0,5.2,2.46,5.2,5.56,0,.34-.07,1.13-.07,1.13h-8.09c.18,2.05,1.77,3.1,3.52,3.1,1.89,0,3.38-1.29,3.38-1.29l1.13,2.09s-1.79,1.68-4.71,1.68c-3.89,0-6.3-2.81-6.3-6.14,0-3.61,2.46-6.14,5.96-6.14ZM190.39,9.29c-.05-1.59-1.04-2.44-2.32-2.44-1.49,0-2.53.92-2.81,2.44h5.13Z"/>
      <path class="cls-1" d="M201.71,9.24h.39v-.16c0-1.54-.97-2.07-2.25-2.07-1.68,0-3.22,1.13-3.22,1.13l-1.1-2.09s1.82-1.45,4.6-1.45c3.08,0,4.88,1.7,4.88,4.67v7.34h-2.69v-.97c0-.46.05-.83.05-.83h-.05s-.9,2.07-3.56,2.07c-2.09,0-3.98-1.31-3.98-3.66,0-3.73,5.04-3.98,6.94-3.98ZM199.48,14.6c1.54,0,2.64-1.66,2.64-3.08v-.28h-.51c-1.49,0-3.91.21-3.91,1.84,0,.78.57,1.52,1.77,1.52Z"/>
      <path class="cls-1" d="M208.47,7.38h-1.52v-2.32h1.59V1.68h2.85v3.38h2.67v2.32h-2.67v4.55c0,1.93,1.52,2.21,2.32,2.21.32,0,.53-.05.53-.05v2.55s-.34.07-.9.07c-1.63,0-4.88-.48-4.88-4.42v-4.92Z"/>
      <path class="cls-1" d="M221.76,4.6c3.38,0,5.2,2.46,5.2,5.56,0,.34-.07,1.13-.07,1.13h-8.09c.18,2.05,1.77,3.1,3.52,3.1,1.89,0,3.38-1.29,3.38-1.29l1.13,2.09s-1.79,1.68-4.71,1.68c-3.89,0-6.3-2.81-6.3-6.14,0-3.61,2.46-6.14,5.96-6.14ZM224.02,9.29c-.05-1.59-1.04-2.44-2.32-2.44-1.49,0-2.53.92-2.81,2.44h5.13Z"/>
      <path class="cls-1" d="M229.38,4.88h2.81v2.02c0,.44-.05.83-.05.83h.05c.53-1.68,1.93-3.01,3.73-3.01.28,0,.53.05.53.05v2.87s-.3-.05-.69-.05c-1.24,0-2.64.71-3.2,2.46-.18.58-.25,1.22-.25,1.91v4.65h-2.92V4.88Z"/>
      <path class="cls-1" d="M247.84,2.83h-5.36V.28h13.68v2.55h-5.36v13.77h-2.97V2.83Z"/>
      <path class="cls-1" d="M261.6,4.6c3.59,0,6.46,2.55,6.46,6.14s-2.87,6.14-6.44,6.14-6.46-2.53-6.46-6.14,2.87-6.14,6.44-6.14ZM261.62,14.4c1.89,0,3.47-1.47,3.47-3.66s-1.59-3.66-3.47-3.66-3.5,1.49-3.5,3.66,1.59,3.66,3.5,3.66Z"/>
      <path class="cls-1" d="M274.85,18.95c1.79,0,3.31-.76,3.31-2.85v-.69c0-.28.05-.62.05-.62h-.05c-.69,1.03-1.7,1.59-3.27,1.59-3.36,0-5.27-2.71-5.27-5.93s1.82-5.84,5.2-5.84c2.55,0,3.47,1.49,3.47,1.49h.07s-.02-.14-.02-.32v-.9h2.74v11.01c0,4.02-3.13,5.54-6.19,5.54-1.47,0-3.04-.41-4.16-1.01l.87-2.23s1.47.76,3.24.76ZM278.23,10.46c0-2.67-1.31-3.38-2.9-3.38-1.77,0-2.76,1.29-2.76,3.27s1.06,3.56,2.94,3.56c1.4,0,2.71-.8,2.71-3.45Z"/>
      <path class="cls-1" d="M289.43,4.6c3.38,0,5.2,2.46,5.2,5.56,0,.34-.07,1.13-.07,1.13h-8.09c.18,2.05,1.77,3.1,3.52,3.1,1.89,0,3.38-1.29,3.38-1.29l1.13,2.09s-1.79,1.68-4.71,1.68c-3.89,0-6.3-2.81-6.3-6.14,0-3.61,2.46-6.14,5.96-6.14ZM291.68,9.29c-.05-1.59-1.04-2.44-2.32-2.44-1.49,0-2.53.92-2.81,2.44h5.13Z"/>
      <path class="cls-1" d="M297.55,7.38h-1.52v-2.32h1.59V1.68h2.85v3.38h2.67v2.32h-2.67v4.55c0,1.93,1.52,2.21,2.32,2.21.32,0,.53-.05.53-.05v2.55s-.34.07-.9.07c-1.63,0-4.87-.48-4.87-4.42v-4.92Z"/>
      <path class="cls-1" d="M305.71.28h2.92v5.66c0,.58-.05.99-.05.99h.05c.58-1.13,2-2.32,4.05-2.32,2.6,0,4.07,1.36,4.07,4.46v7.54h-2.9v-6.94c0-1.43-.37-2.39-1.86-2.39s-2.74,1.01-3.17,2.44c-.14.46-.18.97-.18,1.52v5.38h-2.92V.28Z"/>
      <path class="cls-1" d="M324.94,4.6c3.38,0,5.2,2.46,5.2,5.56,0,.34-.07,1.13-.07,1.13h-8.09c.18,2.05,1.77,3.1,3.52,3.1,1.89,0,3.38-1.29,3.38-1.29l1.13,2.09s-1.79,1.68-4.71,1.68c-3.89,0-6.3-2.81-6.3-6.14,0-3.61,2.46-6.14,5.96-6.14ZM327.19,9.29c-.05-1.59-1.04-2.44-2.32-2.44-1.49,0-2.53.92-2.81,2.44h5.13Z"/>
      <path class="cls-1" d="M332.55,4.88h2.81v2.02c0,.44-.05.83-.05.83h.05c.53-1.68,1.93-3.01,3.73-3.01.28,0,.53.05.53.05v2.87s-.3-.05-.69-.05c-1.24,0-2.64.71-3.2,2.46-.18.58-.25,1.22-.25,1.91v4.65h-2.92V4.88Z"/>
    </g>
  </g>
</svg>