<?xml version="1.0" encoding="UTF-8"?>
<svg id="Layer_2" data-name="Layer 2" xmlns="http://www.w3.org/2000/svg" viewBox="0 0 167.27 18.26">
  <defs>
    <style>
      .cls-1 {
        fill: #fff;
      }
    </style>
  </defs>
  <g id="Layer_1-2" data-name="Layer 1">
    <g>
      <path class="cls-1" d="M0,.04h1.29v3.01h3.25V.04h1.29v7.1h-1.29v-2.98H1.29v2.98H0V.04Z"/>
      <path class="cls-1" d="M9.66,1.92c1.47,0,2.26,1.07,2.26,2.42,0,.15-.03.49-.03.49h-3.52c.08.89.77,1.35,1.53,1.35.82,0,1.47-.56,1.47-.56l.49.91s-.78.73-2.05.73c-1.69,0-2.74-1.22-2.74-2.67,0-1.57,1.07-2.67,2.59-2.67ZM10.64,3.96c-.02-.69-.45-1.06-1.01-1.06-.65,0-1.1.4-1.22,1.06h2.23Z"/>
      <path class="cls-1" d="M12.9.04h1.26v5.32c0,.56.19.7.52.7.1,0,.19,0,.19,0v1.11s-.19.03-.4.03c-.7,0-1.57-.18-1.57-1.64V.04Z"/>
      <path class="cls-1" d="M15.81,2.04h1.16v.37c0,.19-.02.35-.02.35h.02s.44-.84,1.64-.84c1.38,0,2.26,1.09,2.26,2.67s-.99,2.67-2.33,2.67c-1.01,0-1.46-.7-1.46-.7h-.02s.02.18.02.44v2.14h-1.27V2.04ZM18.31,6.19c.7,0,1.28-.57,1.28-1.58s-.52-1.6-1.27-1.6c-.66,0-1.28.48-1.28,1.61,0,.79.43,1.57,1.27,1.57Z"/>
      <path class="cls-1" d="M24.35.04h1.27v2.19c0,.25-.02.43-.02.43h.02s.45-.74,1.53-.74c1.38,0,2.26,1.09,2.26,2.67s-.99,2.67-2.34,2.67c-1.06,0-1.52-.76-1.52-.76h-.02s.02.15.02.35v.29h-1.2V.04ZM26.85,6.19c.7,0,1.28-.57,1.28-1.58s-.52-1.6-1.27-1.6c-.66,0-1.28.48-1.28,1.61,0,.79.42,1.57,1.27,1.57Z"/>
      <path class="cls-1" d="M30.46,2.04h1.22v.88c0,.19-.02.36-.02.36h.02c.23-.73.84-1.31,1.62-1.31.12,0,.23.02.23.02v1.25s-.13-.02-.3-.02c-.54,0-1.15.31-1.39,1.07-.08.25-.11.53-.11.83v2.02h-1.27V2.04Z"/>
      <path class="cls-1" d="M34.39.04h1.26v1.13h-1.26V.04ZM34.39,2.04h1.27v5.1h-1.27V2.04Z"/>
      <path class="cls-1" d="M37.06,2.04h1.22v.59c0,.19-.02.35-.02.35h.02c.22-.43.78-1.06,1.81-1.06,1.13,0,1.77.59,1.77,1.94v3.28h-1.26v-3.02c0-.62-.16-1.04-.81-1.04s-1.18.43-1.37,1.04c-.07.21-.09.44-.09.68v2.34h-1.27V2.04Z"/>
      <path class="cls-1" d="M45.12,8.16c.78,0,1.44-.33,1.44-1.24v-.3c0-.12.02-.27.02-.27h-.02c-.3.45-.74.69-1.42.69-1.46,0-2.29-1.18-2.29-2.58s.79-2.54,2.26-2.54c1.11,0,1.51.65,1.51.65h.03s0-.06,0-.14v-.39h1.19v4.79c0,1.75-1.36,2.41-2.69,2.41-.64,0-1.32-.18-1.81-.44l.38-.97s.64.33,1.41.33ZM46.59,4.47c0-1.16-.57-1.47-1.26-1.47-.77,0-1.2.56-1.2,1.42s.46,1.55,1.28,1.55c.61,0,1.18-.35,1.18-1.5Z"/>
      <path class="cls-1" d="M51.88,3.13h-.66v-1.01h.69V.65h1.24v1.47h1.16v1.01h-1.16v1.98c0,.84.66.96,1.01.96.14,0,.23-.02.23-.02v1.11s-.15.03-.39.03c-.71,0-2.12-.21-2.12-1.92v-2.14Z"/>
      <path class="cls-1" d="M55.43,2.04h1.22v.88c0,.19-.02.36-.02.36h.02c.23-.73.84-1.31,1.62-1.31.12,0,.23.02.23.02v1.25s-.13-.02-.3-.02c-.54,0-1.15.31-1.39,1.07-.08.25-.11.53-.11.83v2.02h-1.27V2.04Z"/>
      <path class="cls-1" d="M61.95,3.94h.17v-.07c0-.67-.42-.9-.98-.9-.73,0-1.4.49-1.4.49l-.48-.91s.79-.63,2-.63c1.34,0,2.12.74,2.12,2.03v3.19h-1.17v-.42c0-.2.02-.36.02-.36h-.02s-.39.9-1.55.9c-.91,0-1.73-.57-1.73-1.59,0-1.62,2.19-1.73,3.02-1.73ZM60.98,6.27c.67,0,1.15-.72,1.15-1.34v-.12h-.22c-.65,0-1.7.09-1.7.8,0,.34.25.66.77.66Z"/>
      <path class="cls-1" d="M64.7,2.04h1.22v.59c0,.19-.02.35-.02.35h.02c.22-.43.78-1.06,1.81-1.06,1.13,0,1.77.59,1.77,1.94v3.28h-1.26v-3.02c0-.62-.16-1.04-.81-1.04s-1.18.43-1.37,1.04c-.07.21-.09.44-.09.68v2.34h-1.27V2.04Z"/>
      <path class="cls-1" d="M70.98,5.62s.56.56,1.39.56c.36,0,.67-.16.67-.46,0-.76-2.48-.66-2.48-2.3,0-.95.85-1.5,1.95-1.5s1.71.58,1.71.58l-.47.94s-.47-.44-1.25-.44c-.33,0-.65.14-.65.46,0,.72,2.48.63,2.48,2.27,0,.85-.74,1.53-1.95,1.53-1.27,0-1.98-.75-1.98-.75l.58-.89Z"/>
      <path class="cls-1" d="M75.61,3.13h-.63v-1.01h.63v-.23c0-1.67,1.37-1.89,2.08-1.89.26,0,.43.03.43.03v1.08s-.11-.02-.26-.02c-.36,0-.98.09-.98.83v.2h1.09v1.01h-1.09v4.01h-1.27V3.13Z"/>
      <path class="cls-1" d="M81.24,1.92c1.56,0,2.81,1.11,2.81,2.67s-1.25,2.67-2.8,2.67-2.81-1.1-2.81-2.67,1.25-2.67,2.8-2.67ZM81.25,6.18c.82,0,1.51-.64,1.51-1.59s-.69-1.59-1.51-1.59-1.52.65-1.52,1.59.69,1.59,1.52,1.59Z"/>
      <path class="cls-1" d="M85.07,2.04h1.22v.88c0,.19-.02.36-.02.36h.02c.23-.73.84-1.31,1.62-1.31.12,0,.23.02.23.02v1.25s-.13-.02-.3-.02c-.54,0-1.15.31-1.39,1.07-.08.25-.11.53-.11.83v2.02h-1.27V2.04Z"/>
      <path class="cls-1" d="M89,2.04h1.22v.59c0,.19-.02.35-.02.35h.02c.25-.5.86-1.06,1.66-1.06s1.28.36,1.49,1.05h.02c.28-.55.94-1.05,1.74-1.05,1.06,0,1.67.6,1.67,1.94v3.28h-1.27v-3.04c0-.58-.11-1.02-.7-1.02-.65,0-1.08.52-1.23,1.16-.05.2-.06.42-.06.66v2.24h-1.27v-3.04c0-.55-.09-1.02-.69-1.02-.66,0-1.09.52-1.25,1.17-.05.19-.06.42-.06.65v2.24h-1.27V2.04Z"/>
      <path class="cls-1" d="M100.72,3.94h.17v-.07c0-.67-.42-.9-.98-.9-.73,0-1.4.49-1.4.49l-.48-.91s.79-.63,2-.63c1.34,0,2.12.74,2.12,2.03v3.19h-1.17v-.42c0-.2.02-.36.02-.36h-.02s-.39.9-1.55.9c-.91,0-1.73-.57-1.73-1.59,0-1.62,2.19-1.73,3.02-1.73ZM99.75,6.27c.67,0,1.15-.72,1.15-1.34v-.12h-.22c-.65,0-1.7.09-1.7.8,0,.34.25.66.77.66Z"/>
      <path class="cls-1" d="M103.66,3.13h-.66v-1.01h.69V.65h1.24v1.47h1.16v1.01h-1.16v1.98c0,.84.66.96,1.01.96.14,0,.23-.02.23-.02v1.11s-.15.03-.39.03c-.71,0-2.12-.21-2.12-1.92v-2.14Z"/>
      <path class="cls-1" d="M107.21.04h1.26v1.13h-1.26V.04ZM107.21,2.04h1.27v5.1h-1.27V2.04Z"/>
      <path class="cls-1" d="M109.18,2.04h1.34l1.06,3.16c.1.3.17.77.18.77h.02s.08-.47.18-.77l1.06-3.16h1.34l-1.83,5.1h-1.5l-1.85-5.1Z"/>
      <path class="cls-1" d="M117.3,1.92c1.47,0,2.26,1.07,2.26,2.42,0,.15-.03.49-.03.49h-3.52c.08.89.77,1.35,1.53,1.35.82,0,1.47-.56,1.47-.56l.49.91s-.78.73-2.05.73c-1.69,0-2.74-1.22-2.74-2.67,0-1.57,1.07-2.67,2.59-2.67ZM118.28,3.96c-.02-.69-.45-1.06-1.01-1.06-.65,0-1.1.4-1.22,1.06h2.23Z"/>
      <path class="cls-1" d="M123.04,2.04h1.16v.37c0,.19-.02.35-.02.35h.02s.44-.84,1.64-.84c1.38,0,2.26,1.09,2.26,2.67s-.99,2.67-2.33,2.67c-1.01,0-1.46-.7-1.46-.7h-.02s.02.18.02.44v2.14h-1.27V2.04ZM125.54,6.19c.7,0,1.28-.57,1.28-1.58s-.52-1.6-1.27-1.6c-.66,0-1.28.48-1.28,1.61,0,.79.43,1.57,1.27,1.57Z"/>
      <path class="cls-1" d="M129.15,2.04h1.22v.88c0,.19-.02.36-.02.36h.02c.23-.73.84-1.31,1.62-1.31.12,0,.23.02.23.02v1.25s-.13-.02-.3-.02c-.54,0-1.15.31-1.39,1.07-.08.25-.11.53-.11.83v2.02h-1.27V2.04Z"/>
      <path class="cls-1" d="M135.5,1.92c1.56,0,2.81,1.11,2.81,2.67s-1.25,2.67-2.8,2.67-2.81-1.1-2.81-2.67,1.25-2.67,2.8-2.67ZM135.51,6.18c.82,0,1.51-.64,1.51-1.59s-.69-1.59-1.51-1.59-1.52.65-1.52,1.59.69,1.59,1.52,1.59Z"/>
      <path class="cls-1" d="M141.26,8.16c.78,0,1.44-.33,1.44-1.24v-.3c0-.12.02-.27.02-.27h-.02c-.3.45-.74.69-1.42.69-1.46,0-2.29-1.18-2.29-2.58s.79-2.54,2.26-2.54c1.11,0,1.51.65,1.51.65h.03s0-.06,0-.14v-.39h1.19v4.79c0,1.75-1.36,2.41-2.69,2.41-.64,0-1.32-.18-1.81-.44l.38-.97s.64.33,1.41.33ZM142.73,4.47c0-1.16-.57-1.47-1.26-1.47-.77,0-1.2.56-1.2,1.42s.46,1.55,1.28,1.55c.61,0,1.18-.35,1.18-1.5Z"/>
      <path class="cls-1" d="M145.37,2.04h1.22v.88c0,.19-.02.36-.02.36h.02c.23-.73.84-1.31,1.62-1.31.12,0,.23.02.23.02v1.25s-.13-.02-.3-.02c-.54,0-1.15.31-1.39,1.07-.08.25-.11.53-.11.83v2.02h-1.27V2.04Z"/>
      <path class="cls-1" d="M151.89,3.94h.17v-.07c0-.67-.42-.9-.98-.9-.73,0-1.4.49-1.4.49l-.48-.91s.79-.63,2-.63c1.34,0,2.12.74,2.12,2.03v3.19h-1.17v-.42c0-.2.02-.36.02-.36h-.02s-.39.9-1.55.9c-.91,0-1.73-.57-1.73-1.59,0-1.62,2.19-1.73,3.02-1.73ZM150.92,6.27c.67,0,1.15-.72,1.15-1.34v-.12h-.22c-.65,0-1.7.09-1.7.8,0,.34.25.66.77.66Z"/>
      <path class="cls-1" d="M154.64,2.04h1.22v.59c0,.19-.02.35-.02.35h.02c.25-.5.86-1.06,1.66-1.06s1.28.36,1.49,1.05h.02c.28-.55.94-1.05,1.74-1.05,1.06,0,1.67.6,1.67,1.94v3.28h-1.27v-3.04c0-.58-.11-1.02-.7-1.02-.65,0-1.08.52-1.23,1.16-.05.2-.06.42-.06.66v2.24h-1.27v-3.04c0-.55-.09-1.02-.69-1.02-.66,0-1.09.52-1.25,1.17-.05.19-.06.42-.06.65v2.24h-1.27V2.04Z"/>
      <path class="cls-1" d="M163.92,5.62s.56.56,1.39.56c.36,0,.67-.16.67-.46,0-.76-2.48-.66-2.48-2.3,0-.95.85-1.5,1.95-1.5s1.71.58,1.71.58l-.47.94s-.47-.44-1.25-.44c-.33,0-.65.14-.65.46,0,.72,2.48.63,2.48,2.27,0,.85-.74,1.53-1.95,1.53s-1.98-.75-1.98-.75l.58-.89Z"/>
      <path class="cls-1" d="M10.44,14.13h-.66v-1.01h.69v-1.47h1.24v1.47h1.16v1.01h-1.16v1.98c0,.84.66.96,1.01.96.14,0,.23-.02.23-.02v1.11s-.15.03-.39.03c-.71,0-2.12-.21-2.12-1.92v-2.14Z"/>
      <path class="cls-1" d="M16.41,12.92c1.56,0,2.81,1.11,2.81,2.67s-1.25,2.67-2.8,2.67-2.81-1.1-2.81-2.67,1.25-2.67,2.8-2.67ZM16.42,17.18c.82,0,1.51-.64,1.51-1.59s-.69-1.59-1.51-1.59-1.52.65-1.52,1.59.69,1.59,1.52,1.59Z"/>
      <path class="cls-1" d="M22.89,14.13h-.66v-1.01h.69v-1.47h1.24v1.47h1.16v1.01h-1.16v1.98c0,.84.66.96,1.01.96.14,0,.23-.02.23-.02v1.11s-.15.03-.39.03c-.71,0-2.12-.21-2.12-1.92v-2.14Z"/>
      <path class="cls-1" d="M26.44,11.04h1.27v2.46c0,.25-.02.43-.02.43h.02c.25-.49.87-1.01,1.76-1.01,1.13,0,1.77.59,1.77,1.94v3.28h-1.26v-3.02c0-.62-.16-1.04-.81-1.04s-1.19.44-1.38,1.06c-.06.2-.08.42-.08.66v2.34h-1.27v-7.1Z"/>
      <path class="cls-1" d="M34.99,12.92c1.56,0,2.81,1.11,2.81,2.67s-1.25,2.67-2.8,2.67-2.81-1.1-2.81-2.67,1.25-2.67,2.8-2.67ZM35,17.18c.82,0,1.51-.64,1.51-1.59s-.69-1.59-1.51-1.59-1.52.65-1.52,1.59.69,1.59,1.52,1.59Z"/>
      <path class="cls-1" d="M38.97,16.62s.56.56,1.39.56c.36,0,.67-.16.67-.46,0-.76-2.48-.66-2.48-2.3,0-.95.85-1.5,1.95-1.5s1.71.58,1.71.58l-.47.94s-.47-.44-1.25-.44c-.33,0-.65.14-.65.46,0,.72,2.48.63,2.48,2.27,0,.85-.74,1.53-1.95,1.53s-1.98-.75-1.98-.75l.58-.89Z"/>
      <path class="cls-1" d="M45.57,12.92c1.47,0,2.26,1.07,2.26,2.42,0,.15-.03.49-.03.49h-3.52c.08.89.77,1.35,1.53,1.35.82,0,1.47-.56,1.47-.56l.49.91s-.78.73-2.05.73c-1.69,0-2.74-1.22-2.74-2.67,0-1.57,1.07-2.67,2.59-2.67ZM46.55,14.96c-.02-.69-.45-1.06-1.01-1.06-.65,0-1.1.4-1.22,1.06h2.23Z"/>
      <path class="cls-1" d="M50.75,13.04h1.34l.89,3.35c.07.27.1.54.1.54h.02s.05-.27.12-.54l.94-3.34h1.13l.94,3.34c.07.27.11.54.11.54h.02s.04-.27.11-.54l.89-3.35h1.32l-1.55,5.1h-1.41l-.86-2.91c-.08-.27-.13-.55-.13-.55h-.02s-.04.28-.12.55l-.86,2.91h-1.42l-1.56-5.1Z"/>
      <path class="cls-1" d="M59.52,11.04h1.27v2.46c0,.25-.02.43-.02.43h.02c.25-.49.87-1.01,1.76-1.01,1.13,0,1.77.59,1.77,1.94v3.28h-1.26v-3.02c0-.62-.16-1.04-.81-1.04s-1.19.44-1.38,1.06c-.06.2-.08.42-.08.66v2.34h-1.27v-7.1Z"/>
      <path class="cls-1" d="M68.07,12.92c1.56,0,2.81,1.11,2.81,2.67s-1.25,2.67-2.8,2.67-2.81-1.1-2.81-2.67,1.25-2.67,2.8-2.67ZM68.08,17.18c.82,0,1.51-.64,1.51-1.59s-.69-1.59-1.51-1.59-1.52.65-1.52,1.59.69,1.59,1.52,1.59Z"/>
      <path class="cls-1" d="M76.73,12.92c1.33,0,1.96.76,1.96.76l-.56.87s-.53-.55-1.33-.55c-.94,0-1.55.71-1.55,1.58s.62,1.6,1.59,1.6c.86,0,1.5-.65,1.5-.65l.49.9s-.73.83-2.1.83c-1.69,0-2.77-1.19-2.77-2.67s1.08-2.67,2.77-2.67Z"/>
      <path class="cls-1" d="M82.37,14.94h.17v-.07c0-.67-.42-.9-.98-.9-.73,0-1.4.49-1.4.49l-.48-.91s.79-.63,2-.63c1.34,0,2.12.74,2.12,2.03v3.19h-1.17v-.42c0-.2.02-.36.02-.36h-.02s-.39.9-1.55.9c-.91,0-1.73-.57-1.73-1.59,0-1.62,2.19-1.73,3.02-1.73ZM81.4,17.27c.67,0,1.15-.72,1.15-1.34v-.12h-.22c-.65,0-1.7.09-1.7.8,0,.34.25.66.77.66Z"/>
      <path class="cls-1" d="M85.12,13.04h1.22v.59c0,.19-.02.35-.02.35h.02c.22-.43.78-1.06,1.81-1.06,1.13,0,1.77.59,1.77,1.94v3.28h-1.26v-3.02c0-.62-.16-1.04-.81-1.04s-1.18.43-1.37,1.04c-.07.21-.09.44-.09.68v2.34h-1.27v-5.1Z"/>
      <path class="cls-1" d="M91.46,10.92h1.17l-.74,2.19h-.9l.47-2.19Z"/>
      <path class="cls-1" d="M93.78,14.13h-.66v-1.01h.69v-1.47h1.24v1.47h1.16v1.01h-1.16v1.98c0,.84.66.96,1.01.96.14,0,.23-.02.23-.02v1.11s-.15.03-.39.03c-.71,0-2.12-.21-2.12-1.92v-2.14Z"/>
      <path class="cls-1" d="M102.35,14.94h.17v-.07c0-.67-.42-.9-.98-.9-.73,0-1.4.49-1.4.49l-.48-.91s.79-.63,2-.63c1.34,0,2.12.74,2.12,2.03v3.19h-1.17v-.42c0-.2.02-.36.02-.36h-.02s-.39.9-1.55.9c-.91,0-1.73-.57-1.73-1.59,0-1.62,2.19-1.73,3.02-1.73ZM101.38,17.27c.67,0,1.15-.72,1.15-1.34v-.12h-.22c-.65,0-1.7.09-1.7.8,0,.34.25.66.77.66Z"/>
      <path class="cls-1" d="M108.8,14.05h-2.2v4.09h-1.27v-4.09h-.63v-1.01h.63v-.15c0-1.67,1.37-1.89,2.08-1.89.26,0,.43.03.43.03v1.08s-.11-.02-.26-.02c-.36,0-.98.09-.98.83v.12h2.2v-.15c0-1.67,1.37-1.89,2.08-1.89.26,0,.43.03.43.03v1.08s-.11-.02-.26-.02c-.36,0-.98.09-.98.83v.12h1.09v1.01h-1.09v4.09h-1.27v-4.09Z"/>
      <path class="cls-1" d="M114.43,12.92c1.56,0,2.81,1.11,2.81,2.67s-1.25,2.67-2.8,2.67-2.81-1.1-2.81-2.67,1.25-2.67,2.8-2.67ZM114.44,17.18c.82,0,1.51-.64,1.51-1.59s-.69-1.59-1.51-1.59-1.52.65-1.52,1.59.69,1.59,1.52,1.59Z"/>
      <path class="cls-1" d="M118.26,13.04h1.22v.88c0,.19-.02.36-.02.36h.02c.23-.73.84-1.31,1.62-1.31.12,0,.23.02.23.02v1.25s-.13-.02-.3-.02c-.54,0-1.15.31-1.39,1.07-.08.25-.11.53-.11.83v2.02h-1.27v-5.1Z"/>
      <path class="cls-1" d="M124.15,12.92c1.12,0,1.47.65,1.47.65h.02s0-.13,0-.29v-2.24h1.27v7.1h-1.2v-.42c0-.19.02-.33.02-.33h-.02s-.43.87-1.6.87c-1.38,0-2.26-1.09-2.26-2.67s.96-2.67,2.31-2.67ZM124.39,17.19c.66,0,1.28-.48,1.28-1.61,0-.79-.42-1.57-1.27-1.57-.7,0-1.28.57-1.28,1.58s.52,1.6,1.27,1.6Z"/>
      <path class="cls-1" d="M130.95,14.13h-.66v-1.01h.69v-1.47h1.24v1.47h1.16v1.01h-1.16v1.98c0,.84.66.96,1.01.96.14,0,.23-.02.23-.02v1.11s-.15.03-.39.03c-.71,0-2.12-.21-2.12-1.92v-2.14Z"/>
      <path class="cls-1" d="M134.5,11.04h1.27v2.46c0,.25-.02.43-.02.43h.02c.25-.49.87-1.01,1.76-1.01,1.13,0,1.77.59,1.77,1.94v3.28h-1.26v-3.02c0-.62-.16-1.04-.81-1.04s-1.19.44-1.38,1.06c-.06.2-.08.42-.08.66v2.34h-1.27v-7.1Z"/>
      <path class="cls-1" d="M142.86,12.92c1.47,0,2.26,1.07,2.26,2.42,0,.15-.03.49-.03.49h-3.52c.08.89.77,1.35,1.53,1.35.82,0,1.47-.56,1.47-.56l.49.91s-.78.73-2.05.73c-1.69,0-2.74-1.22-2.74-2.67,0-1.57,1.07-2.67,2.59-2.67ZM143.84,14.96c-.02-.69-.45-1.06-1.01-1.06-.65,0-1.1.4-1.22,1.06h2.23Z"/>
      <path class="cls-1" d="M146.17,13.04h1.22v.59c0,.19-.02.35-.02.35h.02c.25-.5.86-1.06,1.66-1.06s1.28.36,1.49,1.05h.02c.28-.55.94-1.05,1.74-1.05,1.06,0,1.67.6,1.67,1.94v3.28h-1.27v-3.04c0-.58-.11-1.02-.7-1.02-.65,0-1.08.52-1.23,1.16-.05.2-.06.42-.06.66v2.24h-1.27v-3.04c0-.55-.09-1.02-.69-1.02-.66,0-1.09.52-1.25,1.17-.05.19-.06.42-.06.65v2.24h-1.27v-5.1Z"/>
      <path class="cls-1" d="M155.25,16.87h1.27v1.27h-1.27v-1.27Z"/>
    </g>
  </g>
</svg>