<?xml version="1.0" encoding="UTF-8"?>
<svg id="Layer_2" data-name="Layer 2" xmlns="http://www.w3.org/2000/svg" viewBox="0 0 478.99 21.22">
  <defs>
    <style>
      .cls-1 {
        fill: #a8052b;
      }
    </style>
  </defs>
  <g id="Layer_1-2" data-name="Layer 1">
    <g>
      <path class="cls-1" d="M9.7,2.6s-.25,1.38-.53,2.41l-3.08,11.38h-1.91L0,.23h1.66l3.13,12.56c.21.83.37,1.72.37,1.72h.05s.14-.9.37-1.72L8.97.23h1.52l3.4,12.56c.23.83.35,1.72.37,1.72h.05s.16-.9.37-1.72L17.91.23h1.66l-4.3,16.17h-1.91l-3.08-11.38c-.28-1.04-.53-2.41-.53-2.41h-.05Z"/>
      <path class="cls-1" d="M22.31.23h1.56v6.25c0,.53-.05.94-.05.94h.05c.44-1.1,1.98-2.87,4.6-2.87,2.85,0,3.86,1.63,3.86,4.48v7.36h-1.56v-6.94c0-1.82-.28-3.43-2.51-3.43-1.98,0-3.68,1.36-4.21,3.29-.14.46-.18.99-.18,1.54v5.54h-1.56V.23Z"/>
      <path class="cls-1" d="M40.85,4.55c3.2,0,4.83,2.46,4.83,5.33,0,.28-.05.81-.05.81h-8.88c.07,2.97,2.09,4.58,4.48,4.58,2.12,0,3.52-1.4,3.52-1.4l.71,1.2s-1.68,1.61-4.28,1.61c-3.45,0-6.05-2.48-6.05-6.05,0-3.79,2.58-6.07,5.7-6.07ZM44.09,9.4c-.09-2.41-1.56-3.54-3.29-3.54-1.93,0-3.61,1.22-3.98,3.54h7.27Z"/>
      <path class="cls-1" d="M48.67,4.83h1.54v1.72c0,.51-.05.92-.05.92h.05c.41-1.06,1.89-2.92,4.62-2.92s3.86,1.63,3.86,4.48v7.36h-1.56v-6.94c0-1.82-.28-3.43-2.51-3.43-1.98,0-3.68,1.36-4.21,3.27-.14.48-.18,1.01-.18,1.56v5.54h-1.56V4.83Z"/>
      <path class="cls-1" d="M67,4.83h1.66l2.81,8.62c.18.55.34,1.24.34,1.24h.05s.16-.69.35-1.24l2.85-8.58h1.54l2.85,8.58c.18.55.35,1.24.35,1.24h.05s.16-.67.34-1.24l2.81-8.62h1.66l-3.91,11.57h-1.7l-2.83-8.23c-.21-.57-.37-1.24-.37-1.24h-.05s-.16.67-.34,1.24l-2.83,8.23h-1.7l-3.91-11.57Z"/>
      <path class="cls-1" d="M91.81,4.55c3.2,0,4.83,2.46,4.83,5.33,0,.28-.05.81-.05.81h-8.88c.07,2.97,2.09,4.58,4.48,4.58,2.12,0,3.52-1.4,3.52-1.4l.71,1.2s-1.68,1.61-4.28,1.61c-3.45,0-6.05-2.48-6.05-6.05,0-3.79,2.58-6.07,5.7-6.07ZM95.06,9.4c-.09-2.41-1.56-3.54-3.29-3.54-1.93,0-3.61,1.22-3.98,3.54h7.27Z"/>
      <path class="cls-1" d="M99.96,0h1.66l-1.29,3.96h-1.27l.9-3.96Z"/>
      <path class="cls-1" d="M104.44,4.83h1.54v2.05c0,.51-.05.92-.05.92h.05c.55-1.75,1.84-3.08,3.66-3.08.32,0,.62.07.62.07v1.54s-.28-.05-.57-.05c-1.63,0-2.85,1.29-3.36,2.99-.23.74-.32,1.52-.32,2.25v4.88h-1.56V4.83Z"/>
      <path class="cls-1" d="M117.39,4.55c3.2,0,4.83,2.46,4.83,5.33,0,.28-.05.81-.05.81h-8.88c.07,2.97,2.09,4.58,4.48,4.58,2.12,0,3.52-1.4,3.52-1.4l.71,1.2s-1.68,1.61-4.28,1.61c-3.45,0-6.05-2.48-6.05-6.05,0-3.79,2.58-6.07,5.7-6.07ZM120.63,9.4c-.09-2.41-1.56-3.54-3.29-3.54-1.93,0-3.61,1.22-3.98,3.54h7.27Z"/>
      <path class="cls-1" d="M131.83,6.28h-1.52v-1.31h1.54V1.63h1.54v3.33h2.9v1.31h-2.9v5.75c0,2.71,1.72,3.06,2.6,3.06.32,0,.53-.05.53-.05v1.4s-.25.05-.67.05c-1.33,0-4.02-.44-4.02-4.3v-5.91Z"/>
      <path class="cls-1" d="M144.37,4.55c3.38,0,6.12,2.58,6.12,6s-2.74,6.12-6.12,6.12-6.12-2.62-6.12-6.12,2.74-6,6.12-6ZM144.37,15.27c2.48,0,4.51-2.02,4.51-4.71s-2.02-4.58-4.51-4.58-4.51,1.95-4.51,4.58,2.02,4.71,4.51,4.71Z"/>
      <path class="cls-1" d="M157.41,19.82c2.25,0,4.05-1.06,4.05-3.63v-1.06c0-.44.05-.83.05-.83h-.05c-.69,1.29-1.86,2.02-3.66,2.02-3.1,0-5.15-2.46-5.15-5.93s1.91-5.84,5.01-5.84,3.82,1.93,3.82,1.93h.05s-.02-.14-.02-.39v-1.26h1.52v11.29c0,3.68-2.71,5.1-5.54,5.1-1.33,0-2.67-.35-3.79-.92l.6-1.29s1.43.8,3.13.8ZM161.48,10.39c0-3.38-1.61-4.42-3.66-4.42-2.25,0-3.56,1.63-3.56,4.39s1.49,4.55,3.79,4.55c1.82,0,3.43-1.13,3.43-4.53Z"/>
      <path class="cls-1" d="M171.69,4.55c3.2,0,4.83,2.46,4.83,5.33,0,.28-.05.81-.05.81h-8.88c.07,2.97,2.09,4.58,4.48,4.58,2.12,0,3.52-1.4,3.52-1.4l.71,1.2s-1.68,1.61-4.28,1.61c-3.45,0-6.05-2.48-6.05-6.05,0-3.79,2.58-6.07,5.7-6.07ZM174.93,9.4c-.09-2.41-1.56-3.54-3.29-3.54-1.93,0-3.61,1.22-3.98,3.54h7.27Z"/>
      <path class="cls-1" d="M179.95,6.28h-1.52v-1.31h1.54V1.63h1.54v3.33h2.9v1.31h-2.9v5.75c0,2.71,1.72,3.06,2.6,3.06.32,0,.53-.05.53-.05v1.4s-.25.05-.67.05c-1.33,0-4.02-.44-4.02-4.3v-5.91Z"/>
      <path class="cls-1" d="M187.22.23h1.56v6.25c0,.53-.05.94-.05.94h.05c.44-1.1,1.98-2.87,4.6-2.87,2.85,0,3.86,1.63,3.86,4.48v7.36h-1.56v-6.94c0-1.82-.28-3.43-2.51-3.43-1.98,0-3.68,1.36-4.21,3.29-.14.46-.18.99-.18,1.54v5.54h-1.56V.23Z"/>
      <path class="cls-1" d="M205.75,4.55c3.2,0,4.83,2.46,4.83,5.33,0,.28-.05.81-.05.81h-8.88c.07,2.97,2.09,4.58,4.48,4.58,2.12,0,3.52-1.4,3.52-1.4l.71,1.2s-1.68,1.61-4.28,1.61c-3.45,0-6.05-2.48-6.05-6.05,0-3.79,2.58-6.07,5.7-6.07ZM209,9.4c-.09-2.41-1.56-3.54-3.29-3.54-1.93,0-3.61,1.22-3.98,3.54h7.27Z"/>
      <path class="cls-1" d="M213.57,4.83h1.54v2.05c0,.51-.05.92-.05.92h.05c.55-1.75,1.84-3.08,3.66-3.08.32,0,.62.07.62.07v1.54s-.28-.05-.57-.05c-1.63,0-2.85,1.29-3.36,2.99-.23.74-.32,1.52-.32,2.25v4.88h-1.56V4.83Z"/>
      <path class="cls-1" d="M221.21,14.51h1.72l-1.7,4.12h-1.33l1.31-4.12Z"/>
      <path class="cls-1" d="M238.89,9.24h.64v-.3c0-2.23-1.22-2.99-2.87-2.99-1.91,0-3.27,1.1-3.27,1.1l-.74-1.2s1.52-1.31,4.12-1.31c2.78,0,4.32,1.54,4.32,4.44v7.4h-1.49v-1.26c0-.57.05-.97.05-.97h-.05s-.97,2.51-3.86,2.51c-1.93,0-3.93-1.13-3.93-3.43,0-3.91,5.08-4,7.08-4ZM236,15.34c2.21,0,3.54-2.3,3.54-4.3v-.51h-.67c-1.82,0-5.45.07-5.45,2.62,0,1.08.85,2.18,2.58,2.18Z"/>
      <path class="cls-1" d="M244.71,4.83h1.54v1.72c0,.51-.05.92-.05.92h.05c.55-1.56,2.39-2.92,4.19-2.92,2.14,0,3.24.99,3.59,2.9h.05c.62-1.56,2.3-2.9,4.25-2.9,2.81,0,3.84,1.63,3.84,4.48v7.36h-1.56v-6.97c0-1.89-.39-3.45-2.51-3.45-1.77,0-3.22,1.56-3.66,3.27-.16.51-.21,1.06-.21,1.68v5.47h-1.56v-6.97c0-1.75-.25-3.45-2.44-3.45-1.89,0-3.31,1.63-3.79,3.4-.12.48-.16,1.01-.16,1.54v5.47h-1.56V4.83Z"/>
      <path class="cls-1" d="M271.92,9.24h.64v-.3c0-2.23-1.22-2.99-2.87-2.99-1.91,0-3.27,1.1-3.27,1.1l-.74-1.2s1.52-1.31,4.12-1.31c2.78,0,4.32,1.54,4.32,4.44v7.4h-1.49v-1.26c0-.57.05-.97.05-.97h-.05s-.97,2.51-3.86,2.51c-1.93,0-3.93-1.13-3.93-3.43,0-3.91,5.08-4,7.08-4ZM269.02,15.34c2.21,0,3.54-2.3,3.54-4.3v-.51h-.67c-1.82,0-5.45.07-5.45,2.62,0,1.08.85,2.18,2.58,2.18Z"/>
      <path class="cls-1" d="M276.82,15.38l6.46-8.12c.44-.55.92-1.06.92-1.06v-.05s-.39.05-1.15.05h-5.96v-1.38h9.22v1.03l-6.46,8.09c-.44.55-.94,1.06-.94,1.06v.05s.41-.05,1.17-.05h6.46v1.38h-9.73v-1.01Z"/>
      <path class="cls-1" d="M289.4.23h1.63v1.95h-1.63V.23ZM289.45,4.83h1.56v11.57h-1.56V4.83Z"/>
      <path class="cls-1" d="M294.79,4.83h1.54v1.72c0,.51-.05.92-.05.92h.05c.41-1.06,1.89-2.92,4.62-2.92s3.86,1.63,3.86,4.48v7.36h-1.56v-6.94c0-1.82-.28-3.43-2.51-3.43-1.98,0-3.68,1.36-4.21,3.27-.14.48-.18,1.01-.18,1.56v5.54h-1.56V4.83Z"/>
      <path class="cls-1" d="M312.42,19.82c2.25,0,4.05-1.06,4.05-3.63v-1.06c0-.44.05-.83.05-.83h-.05c-.69,1.29-1.86,2.02-3.66,2.02-3.1,0-5.15-2.46-5.15-5.93s1.91-5.84,5.01-5.84,3.82,1.93,3.82,1.93h.05s-.02-.14-.02-.39v-1.26h1.52v11.29c0,3.68-2.71,5.1-5.54,5.1-1.33,0-2.67-.35-3.79-.92l.6-1.29s1.43.8,3.13.8ZM316.5,10.39c0-3.38-1.61-4.42-3.66-4.42-2.25,0-3.56,1.63-3.56,4.39s1.49,4.55,3.79,4.55c1.82,0,3.43-1.13,3.43-4.53Z"/>
      <path class="cls-1" d="M328.43,6.28h-1.52v-1.31h1.54V1.63h1.54v3.33h2.9v1.31h-2.9v5.75c0,2.71,1.72,3.06,2.6,3.06.32,0,.53-.05.53-.05v1.4s-.25.05-.67.05c-1.33,0-4.02-.44-4.02-4.3v-5.91Z"/>
      <path class="cls-1" d="M335.7.23h1.56v6.25c0,.53-.05.94-.05.94h.05c.44-1.1,1.98-2.87,4.6-2.87,2.85,0,3.86,1.63,3.86,4.48v7.36h-1.56v-6.94c0-1.82-.28-3.43-2.51-3.43-1.98,0-3.68,1.36-4.21,3.29-.14.46-.18.99-.18,1.54v5.54h-1.56V.23Z"/>
      <path class="cls-1" d="M349.29.23h1.63v1.95h-1.63V.23ZM349.34,4.83h1.56v11.57h-1.56V4.83Z"/>
      <path class="cls-1" d="M354.68,4.83h1.54v1.72c0,.51-.05.92-.05.92h.05c.41-1.06,1.89-2.92,4.62-2.92s3.86,1.63,3.86,4.48v7.36h-1.56v-6.94c0-1.82-.28-3.43-2.51-3.43-1.98,0-3.68,1.36-4.21,3.27-.14.48-.18,1.01-.18,1.56v5.54h-1.56V4.83Z"/>
      <path class="cls-1" d="M372.32,19.82c2.25,0,4.05-1.06,4.05-3.63v-1.06c0-.44.05-.83.05-.83h-.05c-.69,1.29-1.86,2.02-3.66,2.02-3.1,0-5.15-2.46-5.15-5.93s1.91-5.84,5.01-5.84,3.82,1.93,3.82,1.93h.05s-.02-.14-.02-.39v-1.26h1.52v11.29c0,3.68-2.71,5.1-5.54,5.1-1.33,0-2.67-.35-3.79-.92l.6-1.29s1.43.8,3.13.8ZM376.39,10.39c0-3.38-1.61-4.42-3.66-4.42-2.25,0-3.56,1.63-3.56,4.39s1.49,4.55,3.79,4.55c1.82,0,3.43-1.13,3.43-4.53Z"/>
      <path class="cls-1" d="M381.61,13.87s1.29,1.4,3.45,1.4c1.24,0,2.32-.62,2.32-1.84,0-2.53-6.23-1.91-6.23-5.68,0-2.07,1.86-3.2,3.96-3.2,2.44,0,3.56,1.26,3.56,1.26l-.71,1.2s-.99-1.06-2.9-1.06c-1.17,0-2.3.51-2.3,1.79,0,2.55,6.23,1.86,6.23,5.68,0,1.89-1.63,3.24-3.96,3.24-2.81,0-4.28-1.68-4.28-1.68l.85-1.13Z"/>
      <path class="cls-1" d="M398.08.23h1.56v6.25c0,.53-.05.94-.05.94h.05c.44-1.1,1.98-2.87,4.6-2.87,2.85,0,3.86,1.63,3.86,4.48v7.36h-1.56v-6.94c0-1.82-.28-3.43-2.51-3.43-1.98,0-3.68,1.36-4.21,3.29-.14.46-.18.99-.18,1.54v5.54h-1.56V.23Z"/>
      <path class="cls-1" d="M417.85,9.24h.64v-.3c0-2.23-1.22-2.99-2.87-2.99-1.91,0-3.27,1.1-3.27,1.1l-.74-1.2s1.52-1.31,4.12-1.31c2.78,0,4.32,1.54,4.32,4.44v7.4h-1.49v-1.26c0-.57.05-.97.05-.97h-.05s-.97,2.51-3.86,2.51c-1.93,0-3.93-1.13-3.93-3.43,0-3.91,5.08-4,7.08-4ZM414.96,15.34c2.21,0,3.54-2.3,3.54-4.3v-.51h-.67c-1.82,0-5.45.07-5.45,2.62,0,1.08.85,2.18,2.58,2.18Z"/>
      <path class="cls-1" d="M423.67,4.83h1.49v1.13c0,.51-.05.9-.05.9h.05s.94-2.3,4-2.3,5.04,2.48,5.04,6.07-2.18,6.05-5.17,6.05c-2.78,0-3.79-2.21-3.79-2.21h-.05s.05.41.05,1.01v5.52h-1.56V4.83ZM428.87,15.29c2.05,0,3.73-1.72,3.73-4.67s-1.49-4.64-3.66-4.64c-1.93,0-3.75,1.38-3.75,4.67,0,2.32,1.29,4.64,3.68,4.64Z"/>
      <path class="cls-1" d="M437.22,4.83h1.49v1.13c0,.51-.05.9-.05.9h.05s.94-2.3,4-2.3,5.04,2.48,5.04,6.07-2.18,6.05-5.17,6.05c-2.78,0-3.79-2.21-3.79-2.21h-.05s.05.41.05,1.01v5.52h-1.56V4.83ZM442.42,15.29c2.05,0,3.73-1.72,3.73-4.67s-1.49-4.64-3.66-4.64c-1.93,0-3.75,1.38-3.75,4.67,0,2.32,1.29,4.64,3.68,4.64Z"/>
      <path class="cls-1" d="M455.67,4.55c3.2,0,4.83,2.46,4.83,5.33,0,.28-.05.81-.05.81h-8.88c.07,2.97,2.09,4.58,4.48,4.58,2.12,0,3.52-1.4,3.52-1.4l.71,1.2s-1.68,1.61-4.28,1.61c-3.45,0-6.05-2.48-6.05-6.05,0-3.79,2.58-6.07,5.7-6.07ZM458.91,9.4c-.09-2.41-1.56-3.54-3.29-3.54-1.93,0-3.61,1.22-3.98,3.54h7.27Z"/>
      <path class="cls-1" d="M463.49,4.83h1.54v1.72c0,.51-.05.92-.05.92h.05c.41-1.06,1.89-2.92,4.62-2.92s3.86,1.63,3.86,4.48v7.36h-1.56v-6.94c0-1.82-.28-3.43-2.51-3.43-1.98,0-3.68,1.36-4.21,3.27-.14.48-.18,1.01-.18,1.56v5.54h-1.56V4.83Z"/>
      <path class="cls-1" d="M477.17,14.56h1.82v1.84h-1.82v-1.84Z"/>
    </g>
  </g>
</svg>