<svg version="1.2" xmlns="http://www.w3.org/2000/svg" viewBox="0 0 97 18" width="97" height="18">
	<title>Asset 438</title>
	<style>
		.s0 { fill: #a8052b } 
		.s1 { fill: #ffffff } 
	</style>
	<g id="Layer_1-2">
		<g>
			<path fill-rule="evenodd" class="s0" d="m114 22.1h-140v-29.1h140l9.2 14.5-9.2 14.6z"/>
			<g>
				<path class="s1" d="m1.8 2.3h3.4c3.1 0 5.3 1.9 5.3 5.2 0 3.3-2.2 5.3-5.3 5.3h-3.4zm3.3 9.6c2.6 0 4.3-1.5 4.3-4.3 0-2.9-1.8-4.4-4.3-4.4h-2.3v8.7z"/>
				<path class="s1" d="m16 5.1c2.2 0 4 1.7 4 3.9 0 2.2-1.8 4-4 4-2.2 0-4-1.7-4-4 0-2.3 1.8-3.9 4-3.9zm0 7c1.6 0 2.9-1.4 2.9-3.1 0-1.8-1.3-3-2.9-3-1.6 0-2.9 1.3-2.9 3 0 1.7 1.3 3.1 2.9 3.1z"/>
				<path class="s1" d="m21.9 5.3h1v1.1c0 0.3 0 0.6 0 0.6 0.3-0.7 1.2-1.9 3-1.9 1.8 0 2.5 1 2.5 2.9v4.8h-1v-4.5c0-1.2-0.2-2.3-1.6-2.3-1.3 0-2.4 0.9-2.8 2.2q-0.1 0.4-0.1 1v3.6h-1v-7.6z"/>
				<path class="s1" d="m34.8 8.1h0.4v-0.2c0-1.4-0.8-1.9-1.9-1.9-1.2 0-2.1 0.7-2.1 0.7l-0.5-0.8c0 0 1-0.8 2.7-0.8 1.8 0 2.8 1 2.8 2.9v4.8h-0.9v-0.8c0-0.4 0-0.7 0-0.7 0 0-0.7 1.7-2.6 1.7-1.2 0-2.5-0.8-2.5-2.3 0-2.5 3.3-2.6 4.6-2.6zm-1.9 4c1.4 0 2.3-1.5 2.3-2.8v-0.3h-0.4c-1.2 0-3.6 0-3.6 1.7 0 0.7 0.6 1.4 1.7 1.4z"/>
				<path class="s1" d="m38.8 6.2h-1v-0.9h1v-2.1h1.1v2.1h1.8v0.9h-1.8v3.7c0 1.8 1.1 2 1.7 2 0.2 0 0.3 0 0.3 0v0.9c0 0-0.2 0.1-0.4 0.1-0.9 0-2.7-0.3-2.7-2.8v-3.9z"/>
				<path class="s1" d="m46.8 5.1c2.1 0 3.1 1.6 3.1 3.5 0 0.1 0 0.5 0 0.5h-5.8c0 1.9 1.4 3 2.9 3 1.4 0 2.3-0.9 2.3-0.9l0.5 0.7c0 0-1.1 1.1-2.8 1.1-2.3 0-4-1.6-4-4 0-2.4 1.7-3.9 3.8-3.9zm2.1 3.1c-0.1-1.5-1-2.3-2.2-2.3-1.2 0-2.3 0.8-2.6 2.3z"/>
				<path class="s1" d="m58.6 3.2h-3.8v-0.9h8.6v0.9h-3.8v9.6h-1c0 0 0-9.6 0-9.6z"/>
				<path class="s1" d="m66.7 5.1c2.2 0 4 1.7 4 3.9 0 2.2-1.8 4-4 4-2.2 0-4-1.7-4-4 0-2.3 1.8-3.9 4-3.9zm0 7c1.7 0 3-1.4 3-3.1 0-1.8-1.3-3-3-3-1.6 0-2.9 1.3-2.9 3 0 1.7 1.3 3.1 2.9 3.1z"/>
				<path class="s1" d="m75.5 5.1c1.9 0 2.5 1.4 2.5 1.4 0 0 0-0.3 0-0.6v-3.6h1v10.5h-1v-0.8c0-0.3 0-0.5 0-0.5 0 0-0.6 1.5-2.6 1.5-2 0-3.3-1.6-3.3-4 0-2.3 1.4-3.9 3.4-3.9zm0.1 7c1.2 0 2.4-0.9 2.4-3.1 0-1.5-0.8-3-2.4-3-1.3 0-2.4 1.1-2.4 3 0 1.9 0.9 3.1 2.4 3.1z"/>
				<path class="s1" d="m85.5 8.1h0.4v-0.2c0-1.4-0.8-1.9-1.9-1.9-1.2 0-2.1 0.7-2.1 0.7l-0.5-0.8c0 0 1-0.8 2.7-0.8 1.8 0 2.8 1 2.8 2.9v4.8h-1v-0.8c0-0.4 0.1-0.7 0.1-0.7h-0.1c0 0-0.6 1.7-2.5 1.7-1.2 0-2.6-0.8-2.6-2.3 0-2.5 3.4-2.6 4.7-2.6zm-1.9 4c1.4 0 2.3-1.5 2.3-2.8v-0.3h-0.4c-1.2 0-3.6 0-3.6 1.7 0 0.7 0.6 1.4 1.7 1.4z"/>
				<path class="s1" d="m88.5 14.7c0 0 0.5 0.3 0.9 0.3 0.7 0 1.2-0.5 1.5-1.2l0.4-1.1-3.1-7.4h1.1l2.2 5.5c0.2 0.3 0.3 0.7 0.3 0.7 0 0 0.1-0.4 0.3-0.7l2.1-5.5h1.2l-3.8 9.1c-0.4 0.9-1.1 1.5-2.1 1.5-0.8 0-1.4-0.4-1.4-0.4z"/>
			</g>
		</g>
	</g>
</svg>