<?xml version="1.0" encoding="UTF-8"?>
<svg id="Layer_2" data-name="Layer 2" xmlns="http://www.w3.org/2000/svg" viewBox="0 0 351.27 11.75">
  <defs>
    <style>
      .cls-1 {
        fill: #fff;
      }
    </style>
  </defs>
  <g id="Layer_1-2" data-name="Layer 1">
    <g>
      <path class="cls-1" d="M0,.19h6.8v1.78H2.06v2.98h3.83v1.78h-3.83v3.06h4.99v1.78H0V.19Z"/>
      <path class="cls-1" d="M10.94.19h2.23l2.5,7.41c.22.66.42,1.66.43,1.66h.03s.21-1.01.43-1.66L19.08.19h2.21l-4.15,11.36h-2.05L10.94.19Z"/>
      <path class="cls-1" d="M25.9.19h6.8v1.78h-4.74v2.98h3.83v1.78h-3.83v3.06h4.99v1.78h-7.06V.19Z"/>
      <path class="cls-1" d="M38.3.19h3.67c1.23,0,1.79.1,2.29.32,1.14.51,1.86,1.6,1.86,3.1,0,1.36-.72,2.63-1.92,3.11v.03s.16.16.38.56l2.34,4.24h-2.31l-2.26-4.24h-1.98v4.24h-2.07V.19ZM42.23,5.52c1.1,0,1.79-.66,1.79-1.79s-.46-1.76-2.08-1.76h-1.57v3.55h1.86Z"/>
      <path class="cls-1" d="M54.21,6.8L50.43.19h2.34l1.78,3.35c.37.7.67,1.54.69,1.52h.03s.32-.82.69-1.52l1.76-3.35h2.34l-3.78,6.61v4.75h-2.06v-4.75Z"/>
      <path class="cls-1" d="M76.87,0c2.77,0,4.19,1.55,4.19,1.55l-.99,1.54s-1.3-1.2-3.11-1.2c-2.4,0-3.81,1.79-3.81,3.91s1.46,4.07,3.83,4.07c1.97,0,3.3-1.44,3.3-1.44l1.09,1.49s-1.57,1.84-4.47,1.84c-3.47,0-5.88-2.58-5.88-5.92s2.5-5.83,5.84-5.83Z"/>
      <path class="cls-1" d="M86.46.19h2.06v4.82h5.2V.19h2.07v11.36h-2.07v-4.77h-5.2v4.77h-2.06V.19Z"/>
      <path class="cls-1" d="M101.87.19h2.06v11.36h-2.06V.19Z"/>
      <path class="cls-1" d="M110.02.19h2.06v9.59h4.91v1.78h-6.98V.19Z"/>
      <path class="cls-1" d="M121.84.19h3.87c3.5,0,5.79,2.08,5.79,5.67s-2.29,5.7-5.79,5.7h-3.87V.19ZM125.6,9.78c2.3,0,3.78-1.36,3.78-3.92s-1.5-3.89-3.78-3.89h-1.7v7.81h1.7Z"/>
      <path class="cls-1" d="M143.95.19h3.87c3.51,0,5.79,2.08,5.79,5.67s-2.29,5.7-5.79,5.7h-3.87V.19ZM147.71,9.78c2.3,0,3.78-1.36,3.78-3.92s-1.5-3.89-3.78-3.89h-1.7v7.81h1.7Z"/>
      <path class="cls-1" d="M158.98.19h6.8v1.78h-4.74v2.98h3.83v1.78h-3.83v3.06h4.99v1.78h-7.06V.19Z"/>
      <path class="cls-1" d="M171.63,8.64s1.23,1.2,2.83,1.2c.86,0,1.65-.45,1.65-1.38,0-2.03-5.36-1.68-5.36-5.17,0-1.89,1.63-3.3,3.81-3.3s3.39,1.22,3.39,1.22l-.9,1.68s-1.09-.99-2.51-.99c-.96,0-1.71.56-1.71,1.36,0,2.02,5.35,1.52,5.35,5.15,0,1.81-1.38,3.33-3.75,3.33-2.53,0-3.92-1.55-3.92-1.55l1.12-1.55Z"/>
      <path class="cls-1" d="M183.44.19h6.8v1.78h-4.74v2.98h3.83v1.78h-3.83v3.06h4.99v1.78h-7.06V.19Z"/>
      <path class="cls-1" d="M195.84.19h3.67c1.23,0,1.79.1,2.29.32,1.14.51,1.86,1.6,1.86,3.1,0,1.36-.72,2.63-1.92,3.11v.03s.16.16.38.56l2.34,4.24h-2.31l-2.26-4.24h-1.98v4.24h-2.07V.19ZM199.76,5.52c1.1,0,1.79-.66,1.79-1.79s-.46-1.76-2.08-1.76h-1.57v3.55h1.86Z"/>
      <path class="cls-1" d="M208.03.19h2.22l2.5,7.41c.22.66.42,1.66.43,1.66h.03s.21-1.01.43-1.66l2.51-7.41h2.21l-4.15,11.36h-2.05L208.03.19Z"/>
      <path class="cls-1" d="M222.99.19h6.8v1.78h-4.74v2.98h3.83v1.78h-3.83v3.06h4.99v1.78h-7.06V.19Z"/>
      <path class="cls-1" d="M235.65,8.64s1.23,1.2,2.83,1.2c.86,0,1.65-.45,1.65-1.38,0-2.03-5.36-1.68-5.36-5.17,0-1.89,1.63-3.3,3.81-3.3s3.39,1.22,3.39,1.22l-.9,1.68s-1.09-.99-2.51-.99c-.96,0-1.71.56-1.71,1.36,0,2.02,5.35,1.52,5.35,5.15,0,1.81-1.38,3.33-3.75,3.33-2.53,0-3.92-1.55-3.92-1.55l1.12-1.55Z"/>
      <path class="cls-1" d="M256.9,1.97h-3.73V.19h9.52v1.78h-3.73v9.59h-2.07V1.97Z"/>
      <path class="cls-1" d="M272.39,0c3.34,0,5.87,2.54,5.87,5.79s-2.53,5.95-5.87,5.95-5.88-2.61-5.88-5.95,2.53-5.79,5.88-5.79ZM272.39,9.86c2.08,0,3.75-1.73,3.75-4.07s-1.67-3.91-3.75-3.91-3.75,1.66-3.75,3.91,1.67,4.07,3.75,4.07Z"/>
      <path class="cls-1" d="M290.64.19h2.07v9.59h4.91v1.78h-6.98V.19Z"/>
      <path class="cls-1" d="M302.46.19h6.8v1.78h-4.74v2.98h3.83v1.78h-3.83v3.06h4.99v1.78h-7.06V.19Z"/>
      <path class="cls-1" d="M320.51,8.64h-3.99l-.96,2.91h-2.13l4-11.36h2.16l4,11.36h-2.13l-.96-2.91ZM318.51,2.16s-.26,1.12-.48,1.76l-1.01,3.04h2.98l-1.01-3.04c-.21-.64-.45-1.76-.45-1.76h-.03Z"/>
      <path class="cls-1" d="M328.25.19h3.67c1.23,0,1.79.1,2.29.32,1.14.51,1.86,1.6,1.86,3.1,0,1.36-.72,2.63-1.92,3.11v.03s.16.16.38.56l2.34,4.24h-2.31l-2.26-4.24h-1.98v4.24h-2.07V.19ZM332.18,5.52c1.1,0,1.79-.66,1.79-1.79s-.46-1.76-2.08-1.76h-1.57v3.55h1.86Z"/>
      <path class="cls-1" d="M341.98.19h2.06l4.31,6.56c.43.66.94,1.76.94,1.76h.03s-.11-1.09-.11-1.76V.19h2.05v11.36h-2.05l-4.31-6.55c-.43-.66-.94-1.76-.94-1.76h-.03s.11,1.09.11,1.76v6.55h-2.06V.19Z"/>
    </g>
  </g>
</svg>