<?xml version="1.0" encoding="UTF-8"?>
<svg id="Layer_2" data-name="Layer 2" xmlns="http://www.w3.org/2000/svg" viewBox="0 0 492.28 14.77">
  <defs>
    <style>
      .cls-1 {
        fill: #a8052b;
      }
    </style>
  </defs>
  <g id="Layer_1-2" data-name="Layer 1">
    <g>
      <path class="cls-1" d="M0,.16h1.1v5.12h6.53V.16h1.1v11.25h-1.1v-5.14H1.1v5.14H0V.16Z"/>
      <path class="cls-1" d="M15.09,3.17c2.23,0,3.36,1.71,3.36,3.71,0,.19-.03.56-.03.56h-6.18c.05,2.07,1.46,3.19,3.12,3.19,1.47,0,2.45-.98,2.45-.98l.5.83s-1.17,1.12-2.98,1.12c-2.4,0-4.21-1.73-4.21-4.21,0-2.64,1.79-4.23,3.97-4.23ZM17.35,6.55c-.06-1.68-1.09-2.46-2.29-2.46-1.34,0-2.51.85-2.77,2.46h5.06Z"/>
      <path class="cls-1" d="M20.45.16h1.09v9.11c0,1.06.48,1.22.9,1.22.14,0,.27-.02.27-.02v.98s-.19.03-.4.03c-.67,0-1.86-.21-1.86-1.97V.16Z"/>
      <path class="cls-1" d="M24.48,3.36h1.04v.78c0,.35-.03.62-.03.62h.03s.66-1.6,2.79-1.6,3.51,1.73,3.51,4.23-1.52,4.21-3.6,4.21c-1.94,0-2.64-1.54-2.64-1.54h-.03s.03.29.03.7v3.84h-1.09V3.36ZM28.1,10.64c1.42,0,2.59-1.2,2.59-3.25s-1.04-3.23-2.55-3.23c-1.34,0-2.61.96-2.61,3.25,0,1.62.9,3.23,2.56,3.23Z"/>
      <path class="cls-1" d="M38.21.16h1.09v3.91c0,.37-.03.66-.03.66h.03s.67-1.55,2.74-1.55,3.51,1.73,3.51,4.23-1.52,4.21-3.63,4.21c-1.92,0-2.64-1.57-2.64-1.57h-.03s.03.27.03.66v.72h-1.06V.16ZM41.82,10.64c1.42,0,2.59-1.2,2.59-3.25s-1.04-3.23-2.55-3.23c-1.34,0-2.61.96-2.61,3.25,0,1.62.83,3.23,2.56,3.23Z"/>
      <path class="cls-1" d="M47.63,3.36h1.07v1.42c0,.35-.03.64-.03.64h.03c.38-1.22,1.28-2.14,2.54-2.14.22,0,.43.05.43.05v1.07s-.19-.03-.4-.03c-1.14,0-1.98.9-2.34,2.08-.16.51-.22,1.06-.22,1.57v3.39h-1.09V3.36Z"/>
      <path class="cls-1" d="M53.29.16h1.14v1.36h-1.14V.16ZM53.33,3.36h1.09v8.05h-1.09V3.36Z"/>
      <path class="cls-1" d="M57.04,3.36h1.07v1.2c0,.35-.03.64-.03.64h.03c.29-.74,1.31-2.03,3.22-2.03s2.69,1.14,2.69,3.12v5.12h-1.09v-4.83c0-1.26-.19-2.38-1.75-2.38-1.38,0-2.56.94-2.93,2.27-.1.34-.13.7-.13,1.09v3.86h-1.09V3.36Z"/>
      <path class="cls-1" d="M69.31,13.8c1.57,0,2.82-.74,2.82-2.53v-.74c0-.3.03-.58.03-.58h-.03c-.48.9-1.3,1.41-2.54,1.41-2.16,0-3.59-1.71-3.59-4.13s1.33-4.07,3.49-4.07,2.66,1.34,2.66,1.34h.03s-.02-.1-.02-.27v-.88h1.06v7.86c0,2.56-1.89,3.55-3.86,3.55-.93,0-1.86-.24-2.64-.64l.42-.9s.99.56,2.18.56ZM72.14,7.24c0-2.35-1.12-3.07-2.54-3.07-1.57,0-2.48,1.14-2.48,3.06s1.04,3.17,2.64,3.17c1.26,0,2.38-.78,2.38-3.15Z"/>
      <path class="cls-1" d="M80.44,4.37h-1.06v-.91h1.07V1.14h1.07v2.32h2.02v.91h-2.02v4c0,1.89,1.2,2.13,1.81,2.13.22,0,.37-.03.37-.03v.98s-.18.03-.46.03c-.93,0-2.8-.3-2.8-2.99v-4.11Z"/>
      <path class="cls-1" d="M85.5,3.36h1.07v1.42c0,.35-.03.64-.03.64h.03c.38-1.22,1.28-2.14,2.54-2.14.22,0,.43.05.43.05v1.07s-.19-.03-.4-.03c-1.14,0-1.98.9-2.34,2.08-.16.51-.22,1.06-.22,1.57v3.39h-1.09V3.36Z"/>
      <path class="cls-1" d="M95.47,6.44h.45v-.21c0-1.55-.85-2.08-2-2.08-1.33,0-2.27.77-2.27.77l-.51-.83s1.06-.91,2.87-.91c1.94,0,3.01,1.07,3.01,3.09v5.15h-1.04v-.88c0-.4.03-.67.03-.67h-.03s-.67,1.75-2.69,1.75c-1.34,0-2.74-.78-2.74-2.39,0-2.72,3.54-2.78,4.93-2.78ZM93.45,10.68c1.54,0,2.46-1.6,2.46-2.99v-.35h-.46c-1.26,0-3.79.05-3.79,1.83,0,.75.59,1.52,1.79,1.52Z"/>
      <path class="cls-1" d="M99.52,3.36h1.07v1.2c0,.35-.03.64-.03.64h.03c.29-.74,1.31-2.03,3.22-2.03s2.69,1.14,2.69,3.12v5.12h-1.09v-4.83c0-1.26-.19-2.38-1.75-2.38-1.38,0-2.56.94-2.93,2.27-.1.34-.13.7-.13,1.09v3.86h-1.09V3.36Z"/>
      <path class="cls-1" d="M108.94,9.65s.9.98,2.4.98c.86,0,1.62-.43,1.62-1.28,0-1.76-4.34-1.33-4.34-3.95,0-1.44,1.3-2.22,2.75-2.22,1.7,0,2.48.88,2.48.88l-.5.83s-.69-.74-2.02-.74c-.82,0-1.6.35-1.6,1.25,0,1.78,4.34,1.3,4.34,3.95,0,1.31-1.14,2.26-2.75,2.26-1.95,0-2.98-1.17-2.98-1.17l.59-.78Z"/>
      <path class="cls-1" d="M116.46,4.37h-1.01v-.91h1.01v-.38c0-2.66,1.87-2.99,2.79-2.99.3,0,.5.03.5.03v.98s-.16-.03-.38-.03c-.62,0-1.81.22-1.81,2.02v.38h2.06v.91h-2.06v7.04h-1.09v-7.04Z"/>
      <path class="cls-1" d="M124.81,3.17c2.35,0,4.26,1.79,4.26,4.18s-1.9,4.26-4.26,4.26-4.26-1.83-4.26-4.26,1.9-4.18,4.26-4.18ZM124.81,10.63c1.73,0,3.14-1.41,3.14-3.28s-1.41-3.19-3.14-3.19-3.14,1.36-3.14,3.19,1.41,3.28,3.14,3.28Z"/>
      <path class="cls-1" d="M131.1,3.36h1.07v1.42c0,.35-.03.64-.03.64h.03c.38-1.22,1.28-2.14,2.54-2.14.22,0,.43.05.43.05v1.07s-.19-.03-.4-.03c-1.14,0-1.98.9-2.34,2.08-.16.51-.22,1.06-.22,1.57v3.39h-1.09V3.36Z"/>
      <path class="cls-1" d="M136.79,3.36h1.07v1.2c0,.35-.03.64-.03.64h.03c.38-1.09,1.67-2.03,2.91-2.03,1.49,0,2.26.69,2.5,2.02h.03c.43-1.09,1.6-2.02,2.96-2.02,1.95,0,2.67,1.14,2.67,3.12v5.12h-1.09v-4.85c0-1.31-.27-2.4-1.75-2.4-1.23,0-2.24,1.09-2.54,2.27-.11.35-.14.74-.14,1.17v3.81h-1.09v-4.85c0-1.22-.18-2.4-1.7-2.4-1.31,0-2.3,1.14-2.64,2.37-.08.34-.11.7-.11,1.07v3.81h-1.09V3.36Z"/>
      <path class="cls-1" d="M155.72,6.44h.45v-.21c0-1.55-.85-2.08-2-2.08-1.33,0-2.27.77-2.27.77l-.51-.83s1.06-.91,2.87-.91c1.94,0,3.01,1.07,3.01,3.09v5.15h-1.04v-.88c0-.4.03-.67.03-.67h-.03s-.67,1.75-2.69,1.75c-1.34,0-2.74-.78-2.74-2.39,0-2.72,3.54-2.78,4.93-2.78ZM153.71,10.68c1.54,0,2.46-1.6,2.46-2.99v-.35h-.46c-1.26,0-3.79.05-3.79,1.83,0,.75.59,1.52,1.79,1.52Z"/>
      <path class="cls-1" d="M160.03,4.37h-1.06v-.91h1.07V1.14h1.07v2.32h2.02v.91h-2.02v4c0,1.89,1.2,2.13,1.81,2.13.22,0,.37-.03.37-.03v.98s-.18.03-.46.03c-.93,0-2.8-.3-2.8-2.99v-4.11Z"/>
      <path class="cls-1" d="M165.05.16h1.14v1.36h-1.14V.16ZM165.08,3.36h1.09v8.05h-1.09V3.36Z"/>
      <path class="cls-1" d="M167.69,3.36h1.15l2.24,5.91c.14.4.27.96.27.96h.03s.13-.54.29-.96l2.23-5.91h1.14l-3.07,8.05h-1.18l-3.09-8.05Z"/>
      <path class="cls-1" d="M179.96,3.17c2.23,0,3.36,1.71,3.36,3.71,0,.19-.03.56-.03.56h-6.18c.05,2.07,1.46,3.19,3.12,3.19,1.47,0,2.45-.98,2.45-.98l.5.83s-1.17,1.12-2.98,1.12c-2.4,0-4.21-1.73-4.21-4.21,0-2.64,1.79-4.23,3.97-4.23ZM182.22,6.55c-.06-1.68-1.09-2.46-2.29-2.46-1.34,0-2.51.85-2.77,2.46h5.06Z"/>
      <path class="cls-1" d="M189.71,3.36h1.04v.78c0,.35-.03.62-.03.62h.03s.66-1.6,2.79-1.6,3.51,1.73,3.51,4.23-1.52,4.21-3.6,4.21c-1.94,0-2.64-1.54-2.64-1.54h-.03s.03.29.03.7v3.84h-1.09V3.36ZM193.32,10.64c1.42,0,2.59-1.2,2.59-3.25s-1.04-3.23-2.55-3.23c-1.34,0-2.61.96-2.61,3.25,0,1.62.9,3.23,2.56,3.23Z"/>
      <path class="cls-1" d="M199.13,3.36h1.07v1.42c0,.35-.03.64-.03.64h.03c.38-1.22,1.28-2.14,2.54-2.14.22,0,.43.05.43.05v1.07s-.19-.03-.4-.03c-1.14,0-1.98.9-2.34,2.08-.16.51-.22,1.06-.22,1.57v3.39h-1.09V3.36Z"/>
      <path class="cls-1" d="M208.39,3.17c2.35,0,4.26,1.79,4.26,4.18s-1.9,4.26-4.26,4.26-4.26-1.83-4.26-4.26,1.9-4.18,4.26-4.18ZM208.39,10.63c1.73,0,3.14-1.41,3.14-3.28s-1.41-3.19-3.14-3.19-3.14,1.36-3.14,3.19,1.41,3.28,3.14,3.28Z"/>
      <path class="cls-1" d="M217.47,13.8c1.57,0,2.82-.74,2.82-2.53v-.74c0-.3.03-.58.03-.58h-.03c-.48.9-1.3,1.41-2.54,1.41-2.16,0-3.59-1.71-3.59-4.13s1.33-4.07,3.49-4.07,2.66,1.34,2.66,1.34h.03s-.02-.1-.02-.27v-.88h1.06v7.86c0,2.56-1.89,3.55-3.86,3.55-.93,0-1.86-.24-2.64-.64l.42-.9s.99.56,2.18.56ZM220.3,7.24c0-2.35-1.12-3.07-2.54-3.07-1.57,0-2.48,1.14-2.48,3.06s1.04,3.17,2.64,3.17c1.26,0,2.38-.78,2.38-3.15Z"/>
      <path class="cls-1" d="M223.99,3.36h1.07v1.42c0,.35-.03.64-.03.64h.03c.38-1.22,1.28-2.14,2.54-2.14.22,0,.43.05.43.05v1.07s-.19-.03-.4-.03c-1.14,0-1.98.9-2.34,2.08-.16.51-.22,1.06-.22,1.57v3.39h-1.09V3.36Z"/>
      <path class="cls-1" d="M233.96,6.44h.45v-.21c0-1.55-.85-2.08-2-2.08-1.33,0-2.27.77-2.27.77l-.51-.83s1.06-.91,2.87-.91c1.94,0,3.01,1.07,3.01,3.09v5.15h-1.04v-.88c0-.4.03-.67.03-.67h-.03s-.67,1.75-2.69,1.75c-1.34,0-2.74-.78-2.74-2.39,0-2.72,3.54-2.78,4.93-2.78ZM231.95,10.68c1.54,0,2.46-1.6,2.46-2.99v-.35h-.46c-1.26,0-3.79.05-3.79,1.83,0,.75.59,1.52,1.79,1.52Z"/>
      <path class="cls-1" d="M238.01,3.36h1.07v1.2c0,.35-.03.64-.03.64h.03c.38-1.09,1.67-2.03,2.91-2.03,1.49,0,2.26.69,2.5,2.02h.03c.43-1.09,1.6-2.02,2.96-2.02,1.95,0,2.67,1.14,2.67,3.12v5.12h-1.09v-4.85c0-1.31-.27-2.4-1.75-2.4-1.23,0-2.24,1.09-2.54,2.27-.11.35-.14.74-.14,1.17v3.81h-1.09v-4.85c0-1.22-.18-2.4-1.7-2.4-1.31,0-2.3,1.14-2.64,2.37-.08.34-.11.7-.11,1.07v3.81h-1.09V3.36Z"/>
      <path class="cls-1" d="M252.6,9.65s.9.98,2.4.98c.86,0,1.62-.43,1.62-1.28,0-1.76-4.34-1.33-4.34-3.95,0-1.44,1.3-2.22,2.75-2.22,1.7,0,2.48.88,2.48.88l-.5.83s-.69-.74-2.02-.74c-.82,0-1.6.35-1.6,1.25,0,1.78,4.34,1.3,4.34,3.95,0,1.31-1.14,2.26-2.75,2.26-1.95,0-2.98-1.17-2.98-1.17l.59-.78Z"/>
      <path class="cls-1" d="M264.36,4.37h-1.06v-.91h1.07V1.14h1.07v2.32h2.02v.91h-2.02v4c0,1.89,1.2,2.13,1.81,2.13.22,0,.37-.03.37-.03v.98s-.18.03-.46.03c-.93,0-2.8-.3-2.8-2.99v-4.11Z"/>
      <path class="cls-1" d="M273.08,3.17c2.35,0,4.26,1.79,4.26,4.18s-1.9,4.26-4.26,4.26-4.26-1.83-4.26-4.26,1.9-4.18,4.26-4.18ZM273.08,10.63c1.73,0,3.14-1.41,3.14-3.28s-1.41-3.19-3.14-3.19-3.14,1.36-3.14,3.19,1.41,3.28,3.14,3.28Z"/>
      <path class="cls-1" d="M283.98,4.37h-1.06v-.91h1.07V1.14h1.07v2.32h2.02v.91h-2.02v4c0,1.89,1.2,2.13,1.81,2.13.22,0,.37-.03.37-.03v.98s-.18.03-.46.03c-.93,0-2.8-.3-2.8-2.99v-4.11Z"/>
      <path class="cls-1" d="M289.03.16h1.09v4.35c0,.37-.03.66-.03.66h.03c.3-.77,1.38-2,3.2-2,1.98,0,2.69,1.14,2.69,3.12v5.12h-1.09v-4.83c0-1.26-.19-2.38-1.75-2.38-1.38,0-2.56.94-2.93,2.29-.1.32-.13.69-.13,1.07v3.86h-1.09V.16Z"/>
      <path class="cls-1" d="M302.19,3.17c2.35,0,4.26,1.79,4.26,4.18s-1.9,4.26-4.26,4.26-4.26-1.83-4.26-4.26,1.9-4.18,4.26-4.18ZM302.19,10.63c1.73,0,3.14-1.41,3.14-3.28s-1.41-3.19-3.14-3.19-3.14,1.36-3.14,3.19,1.41,3.28,3.14,3.28Z"/>
      <path class="cls-1" d="M308.41,9.65s.9.98,2.4.98c.86,0,1.62-.43,1.62-1.28,0-1.76-4.34-1.33-4.34-3.95,0-1.44,1.3-2.22,2.75-2.22,1.7,0,2.48.88,2.48.88l-.5.83s-.69-.74-2.02-.74c-.82,0-1.6.35-1.6,1.25,0,1.78,4.34,1.3,4.34,3.95,0,1.31-1.14,2.26-2.75,2.26-1.95,0-2.98-1.17-2.98-1.17l.59-.78Z"/>
      <path class="cls-1" d="M318.97,3.17c2.23,0,3.36,1.71,3.36,3.71,0,.19-.03.56-.03.56h-6.18c.05,2.07,1.46,3.19,3.12,3.19,1.47,0,2.45-.98,2.45-.98l.5.83s-1.17,1.12-2.98,1.12c-2.4,0-4.21-1.73-4.21-4.21,0-2.64,1.79-4.23,3.97-4.23ZM321.23,6.55c-.06-1.68-1.09-2.46-2.29-2.46-1.34,0-2.51.85-2.77,2.46h5.06Z"/>
      <path class="cls-1" d="M327.67,3.36h1.15l1.95,6c.13.38.24.86.24.86h.03s.11-.48.24-.86l1.98-5.97h1.07l1.98,5.97c.13.38.24.86.24.86h.03s.11-.46.24-.86l1.95-6h1.15l-2.72,8.05h-1.18l-1.97-5.73c-.14-.4-.26-.86-.26-.86h-.03s-.11.46-.24.86l-1.97,5.73h-1.18l-2.72-8.05Z"/>
      <path class="cls-1" d="M341.53.16h1.09v4.35c0,.37-.03.66-.03.66h.03c.3-.77,1.38-2,3.2-2,1.98,0,2.69,1.14,2.69,3.12v5.12h-1.09v-4.83c0-1.26-.19-2.38-1.75-2.38-1.38,0-2.56.94-2.93,2.29-.1.32-.13.69-.13,1.07v3.86h-1.09V.16Z"/>
      <path class="cls-1" d="M354.68,3.17c2.35,0,4.26,1.79,4.26,4.18s-1.9,4.26-4.26,4.26-4.26-1.83-4.26-4.26,1.9-4.18,4.26-4.18ZM354.68,10.63c1.73,0,3.14-1.41,3.14-3.28s-1.41-3.19-3.14-3.19-3.14,1.36-3.14,3.19,1.41,3.28,3.14,3.28Z"/>
      <path class="cls-1" d="M368.94,3.17c1.97,0,2.95,1.15,2.95,1.15l-.56.82s-.9-.98-2.35-.98c-1.76,0-3.14,1.31-3.14,3.23s1.39,3.23,3.17,3.23c1.63,0,2.58-1.14,2.58-1.14l.5.85s-1.09,1.26-3.14,1.26c-2.38,0-4.23-1.71-4.23-4.21s1.86-4.23,4.23-4.23Z"/>
      <path class="cls-1" d="M378.33,6.44h.45v-.21c0-1.55-.85-2.08-2-2.08-1.33,0-2.27.77-2.27.77l-.51-.83s1.06-.91,2.87-.91c1.94,0,3.01,1.07,3.01,3.09v5.15h-1.04v-.88c0-.4.03-.67.03-.67h-.03s-.67,1.75-2.69,1.75c-1.34,0-2.74-.78-2.74-2.39,0-2.72,3.54-2.78,4.93-2.78ZM376.31,10.68c1.54,0,2.46-1.6,2.46-2.99v-.35h-.46c-1.26,0-3.79.05-3.79,1.83,0,.75.59,1.52,1.79,1.52Z"/>
      <path class="cls-1" d="M382.38,3.36h1.07v1.2c0,.35-.03.64-.03.64h.03c.29-.74,1.31-2.03,3.22-2.03s2.69,1.14,2.69,3.12v5.12h-1.09v-4.83c0-1.26-.19-2.38-1.75-2.38-1.38,0-2.56.94-2.93,2.27-.1.34-.13.7-.13,1.09v3.86h-1.09V3.36Z"/>
      <path class="cls-1" d="M392.09,0h1.15l-.9,2.75h-.88l.62-2.75Z"/>
      <path class="cls-1" d="M395.51,4.37h-1.06v-.91h1.07V1.14h1.07v2.32h2.02v.91h-2.02v4c0,1.89,1.2,2.13,1.81,2.13.22,0,.37-.03.37-.03v.98s-.18.03-.46.03c-.93,0-2.8-.3-2.8-2.99v-4.11Z"/>
      <path class="cls-1" d="M409.14,6.44h.45v-.21c0-1.55-.85-2.08-2-2.08-1.33,0-2.27.77-2.27.77l-.51-.83s1.06-.91,2.87-.91c1.94,0,3.01,1.07,3.01,3.09v5.15h-1.04v-.88c0-.4.03-.67.03-.67h-.03s-.67,1.75-2.69,1.75c-1.34,0-2.74-.78-2.74-2.39,0-2.72,3.54-2.78,4.93-2.78ZM407.13,10.68c1.54,0,2.46-1.6,2.46-2.99v-.35h-.46c-1.26,0-3.79.05-3.79,1.83,0,.75.59,1.52,1.79,1.52Z"/>
      <path class="cls-1" d="M418.63,4.27h-4.03v7.14h-1.09v-7.14h-1.01v-.91h1.01v-.29c0-2.66,1.87-2.99,2.79-2.99.3,0,.5.03.5.03v.98s-.16-.03-.38-.03c-.62,0-1.81.22-1.81,2.02v.29h4.03v-.29c0-2.66,1.87-2.99,2.79-2.99.3,0,.5.03.5.03v.98s-.16-.03-.38-.03c-.62,0-1.81.22-1.81,2.02v.29h2.06v.91h-2.06v7.14h-1.09v-7.14Z"/>
      <path class="cls-1" d="M426.98,3.17c2.35,0,4.26,1.79,4.26,4.18s-1.9,4.26-4.26,4.26-4.26-1.83-4.26-4.26,1.9-4.18,4.26-4.18ZM426.98,10.63c1.73,0,3.14-1.41,3.14-3.28s-1.41-3.19-3.14-3.19-3.14,1.36-3.14,3.19,1.41,3.28,3.14,3.28Z"/>
      <path class="cls-1" d="M433.27,3.36h1.07v1.42c0,.35-.03.64-.03.64h.03c.38-1.22,1.28-2.14,2.54-2.14.22,0,.43.05.43.05v1.07s-.19-.03-.4-.03c-1.14,0-1.98.9-2.34,2.08-.16.51-.22,1.06-.22,1.57v3.39h-1.09V3.36Z"/>
      <path class="cls-1" d="M441.99,3.17c1.95,0,2.62,1.52,2.62,1.52h.03s-.03-.27-.03-.61V.16h1.09v11.25h-1.06v-.85c0-.35.03-.58.03-.58h-.03s-.66,1.62-2.77,1.62-3.51-1.73-3.51-4.23,1.5-4.21,3.62-4.21ZM442.04,10.63c1.34,0,2.61-.96,2.61-3.25,0-1.63-.83-3.23-2.56-3.23-1.42,0-2.59,1.2-2.59,3.23s1.04,3.25,2.55,3.25Z"/>
      <path class="cls-1" d="M452.93,4.37h-1.06v-.91h1.07V1.14h1.07v2.32h2.02v.91h-2.02v4c0,1.89,1.2,2.13,1.81,2.13.22,0,.37-.03.37-.03v.98s-.18.03-.46.03c-.93,0-2.8-.3-2.8-2.99v-4.11Z"/>
      <path class="cls-1" d="M457.99.16h1.09v4.35c0,.37-.03.66-.03.66h.03c.3-.77,1.38-2,3.2-2,1.98,0,2.69,1.14,2.69,3.12v5.12h-1.09v-4.83c0-1.26-.19-2.38-1.75-2.38-1.38,0-2.56.94-2.93,2.29-.1.32-.13.69-.13,1.07v3.86h-1.09V.16Z"/>
      <path class="cls-1" d="M470.89,3.17c2.23,0,3.36,1.71,3.36,3.71,0,.19-.03.56-.03.56h-6.18c.05,2.07,1.46,3.19,3.12,3.19,1.47,0,2.45-.98,2.45-.98l.5.83s-1.17,1.12-2.98,1.12c-2.4,0-4.21-1.73-4.21-4.21,0-2.64,1.79-4.23,3.97-4.23ZM473.15,6.55c-.06-1.68-1.09-2.46-2.29-2.46-1.34,0-2.51.85-2.77,2.46h5.06Z"/>
      <path class="cls-1" d="M476.33,3.36h1.07v1.2c0,.35-.03.64-.03.64h.03c.38-1.09,1.67-2.03,2.91-2.03,1.49,0,2.26.69,2.5,2.02h.03c.43-1.09,1.6-2.02,2.96-2.02,1.95,0,2.67,1.14,2.67,3.12v5.12h-1.09v-4.85c0-1.31-.27-2.4-1.75-2.4-1.23,0-2.24,1.09-2.54,2.27-.11.35-.14.74-.14,1.17v3.81h-1.09v-4.85c0-1.22-.18-2.4-1.7-2.4-1.31,0-2.3,1.14-2.64,2.37-.08.34-.11.7-.11,1.07v3.81h-1.09V3.36Z"/>
      <path class="cls-1" d="M491.02,10.13h1.26v1.28h-1.26v-1.28Z"/>
    </g>
  </g>
</svg>